<svg xmlns="http://www.w3.org/2000/svg" xmlns:xlink="http://www.w3.org/1999/xlink" preserveAspectRatio="xMidYMid" width="51" height="30" viewBox="0 0 51 30">
  <defs>
    <style>
      .cls-1 {
        fill: #f1f3f2;
      }

      .cls-2 {
        fill: #190f04;
      }

      .cls-2, .cls-3 {
        fill-rule: evenodd;
      }

      .cls-3 {
        fill: #f48221;
      }
    </style>
  </defs>
  <g>
    <rect width="51" height="30" rx="1" ry="1" class="cls-1"/>
    <path d="M44.000,17.973 L42.584,17.973 L40.992,15.560 L40.841,15.560 L40.841,17.973 L39.690,17.973 L39.690,12.026 L41.398,12.026 C42.726,12.026 43.486,12.761 43.486,13.830 C43.486,14.704 43.009,15.278 42.141,15.449 L44.000,17.973 ZM42.302,13.891 C42.302,13.335 41.913,12.924 41.195,12.924 L40.841,12.924 L40.841,14.773 L41.176,14.773 C41.913,14.773 42.302,14.464 42.302,13.891 ZM35.665,12.026 L38.930,12.026 L38.930,12.993 L36.815,12.993 L36.815,14.379 L38.849,14.379 L38.849,15.346 L36.815,15.346 L36.815,17.007 L38.930,17.007 L38.930,17.973 L35.665,17.973 L35.665,12.026 ZM31.974,18.000 L29.469,12.026 L30.726,12.026 L32.301,15.980 L33.895,12.026 L35.142,12.026 L32.593,18.000 L31.974,18.000 ZM21.532,17.983 C19.779,17.983 18.416,16.682 18.416,15.003 C18.416,13.344 19.815,12.017 21.558,12.017 C22.054,12.017 22.521,12.119 23.025,12.366 L23.025,13.676 C22.547,13.223 22.080,13.034 21.532,13.034 C20.451,13.034 19.602,13.899 19.602,14.994 C19.602,16.151 20.426,16.964 21.584,16.964 C22.107,16.964 22.564,16.785 23.025,16.339 L23.025,17.650 C22.502,17.888 22.027,17.983 21.532,17.983 ZM18.054,16.117 C18.054,17.221 17.213,17.992 16.019,17.992 C15.142,17.992 14.505,17.657 13.975,16.905 L14.717,16.211 C14.983,16.707 15.425,16.972 15.974,16.972 C16.488,16.972 16.868,16.630 16.868,16.168 C16.868,15.928 16.753,15.723 16.523,15.578 C16.408,15.508 16.178,15.406 15.726,15.252 C14.647,14.875 14.275,14.473 14.275,13.684 C14.275,12.752 15.072,11.999 16.115,11.999 C16.762,11.999 17.355,12.264 17.850,12.684 L17.249,13.445 C16.947,13.120 16.664,12.984 16.319,12.984 C15.823,12.984 15.461,13.257 15.461,13.617 C15.461,13.924 15.664,14.088 16.355,14.335 C17.665,14.798 18.054,15.209 18.054,16.117 ZM12.391,12.009 L13.490,12.009 L13.490,17.973 L12.391,17.973 L12.391,12.009 ZM8.683,17.973 L7.000,17.973 L7.000,12.009 L8.692,12.009 C10.558,12.009 11.859,13.317 11.859,15.003 C11.859,15.843 11.461,16.656 10.788,17.196 C10.222,17.650 9.576,17.973 8.683,17.973 ZM10.037,13.574 C9.656,13.241 9.205,13.112 8.461,13.112 L8.152,13.112 L8.152,16.888 L8.461,16.888 C9.205,16.888 9.674,16.751 10.037,16.433 C10.436,16.092 10.673,15.543 10.673,14.994 C10.673,14.447 10.436,13.916 10.037,13.574 Z" class="cls-2"/>
    <path d="M26.558,12.038 C24.820,12.038 23.411,13.351 23.411,14.972 C23.411,16.695 24.759,17.983 26.558,17.983 C28.312,17.983 29.696,16.678 29.696,15.006 C29.696,13.344 28.321,12.038 26.558,12.038 Z" class="cls-3"/>
  </g>
</svg>
