<svg xmlns="http://www.w3.org/2000/svg" xmlns:xlink="http://www.w3.org/1999/xlink" preserveAspectRatio="xMidYMid" width="216.594" height="40.344" viewBox="0 0 216.594 40.344">
  <defs>
    <style>
      .cls-1 {
        fill: #0e1414;
      }

      .cls-1, .cls-2 {
        fill-rule: evenodd;
      }

      .cls-2 {
        fill: #20d696;
      }
    </style>
  </defs>
  <g>
    <symbol id="logo_right">
      <path d="M216.425,23.560 L208.289,23.560 C208.539,25.278 209.891,26.213 211.668,26.213 C213.045,26.213 214.197,25.708 214.848,25.177 L215.674,27.224 C214.547,28.184 212.945,28.639 211.368,28.639 C207.738,28.639 205.310,26.263 205.310,22.675 C205.310,19.365 207.563,16.712 211.268,16.712 C214.172,16.712 216.600,18.809 216.600,21.993 C216.600,22.701 216.550,23.130 216.425,23.560 ZM211.143,19.138 C209.415,19.138 208.489,20.123 208.189,21.614 L213.721,21.614 C213.746,20.224 212.795,19.138 211.143,19.138 ZM201.728,19.517 C200.727,19.517 200.201,20.073 199.875,20.730 L199.875,28.361 L196.997,28.361 L196.997,16.990 L199.875,16.990 L199.875,18.102 C200.401,17.369 201.102,16.788 202.454,16.788 C203.380,16.788 203.831,16.939 204.206,17.217 L203.180,19.946 C202.629,19.618 202.329,19.517 201.728,19.517 ZM191.111,27.047 C190.510,27.906 189.308,28.512 187.781,28.512 C185.729,28.512 184.252,27.224 184.252,25.025 C184.252,22.524 186.079,21.336 188.357,21.336 C189.359,21.336 190.360,21.665 190.911,22.069 C190.986,20.174 190.485,19.138 188.808,19.138 C187.506,19.138 186.680,19.542 185.854,19.921 L185.128,17.798 C186.104,17.217 187.631,16.712 189.108,16.712 C192.438,16.712 193.614,18.430 193.614,21.437 L193.614,28.361 L191.111,28.361 L191.111,27.047 ZM190.911,23.863 C190.410,23.484 189.759,23.307 188.933,23.307 C187.982,23.307 187.131,23.762 187.131,24.722 C187.131,25.581 187.831,26.061 188.733,26.061 C189.934,26.061 190.560,25.531 190.911,25.025 L190.911,23.863 ZM178.816,22.145 C178.816,20.452 177.890,19.517 176.313,19.517 C175.387,19.517 174.485,19.896 173.834,20.553 L173.834,28.361 L170.956,28.361 L170.956,10.673 L173.834,10.673 L173.834,18.026 C174.560,17.318 175.762,16.788 177.064,16.788 C179.817,16.788 181.695,18.203 181.695,21.766 L181.695,28.361 L178.816,28.361 L178.816,22.145 ZM162.191,28.639 C159.938,28.639 157.309,27.653 156.458,25.859 L158.210,23.737 C159.237,25.076 160.889,25.733 162.241,25.733 C163.693,25.733 164.794,25.000 164.794,23.661 C164.794,20.174 156.859,21.033 156.859,15.272 C156.859,12.618 158.911,10.395 162.316,10.395 C164.469,10.395 166.271,11.128 167.322,12.290 L165.670,14.615 C164.819,13.781 163.968,13.301 162.566,13.301 C161.039,13.301 160.113,14.084 160.113,15.246 C160.113,18.910 168.048,17.748 168.048,23.635 C168.048,26.617 165.470,28.639 162.191,28.639 ZM147.193,23.560 C147.443,25.278 148.795,26.213 150.572,26.213 C151.949,26.213 153.101,25.708 153.751,25.177 L154.578,27.224 C153.451,28.184 151.849,28.639 150.272,28.639 C146.642,28.639 144.214,26.263 144.214,22.675 C144.214,19.365 146.467,16.712 150.172,16.712 C153.076,16.712 155.504,18.809 155.504,21.993 C155.504,22.701 155.454,23.130 155.329,23.560 L147.193,23.560 ZM150.047,19.138 C148.319,19.138 147.393,20.123 147.093,21.614 L152.625,21.614 C152.650,20.224 151.699,19.138 150.047,19.138 ZM138.528,25.935 C139.755,25.935 140.706,25.354 141.432,24.545 L142.784,26.668 C141.833,27.956 140.130,28.639 138.303,28.639 C134.648,28.639 132.195,26.263 132.195,22.675 C132.195,19.365 134.598,16.712 138.028,16.712 C139.880,16.712 141.507,17.192 142.559,18.253 L141.207,20.553 C140.356,19.719 139.430,19.441 138.403,19.441 C136.801,19.441 135.274,20.679 135.274,22.675 C135.274,24.697 136.826,25.935 138.528,25.935 ZM127.335,19.719 L122.879,19.719 L122.879,28.361 L120.001,28.361 L120.001,15.575 C120.001,11.987 122.028,10.395 125.007,10.395 C127.711,10.395 129.088,11.582 129.839,12.770 L127.761,14.413 C127.335,13.730 126.584,13.124 125.533,13.124 C123.806,13.124 122.879,13.806 122.879,15.827 L122.879,16.990 L130.214,16.990 L130.214,28.361 L127.335,28.361 L127.335,19.719 ZM116.519,13.124 C115.543,13.124 114.867,13.806 114.867,15.373 L114.867,16.990 L117.921,16.990 L117.921,19.719 L114.867,19.719 L114.867,28.361 L111.988,28.361 L111.988,15.145 C111.988,11.987 113.490,10.395 115.993,10.395 C117.345,10.395 118.572,10.850 119.147,11.456 L118.171,13.680 C117.796,13.301 117.170,13.124 116.519,13.124 ZM100.468,28.639 C95.261,28.639 91.356,25.025 91.356,19.517 C91.356,14.387 95.086,10.395 100.468,10.395 C105.675,10.395 109.605,14.008 109.605,19.517 C109.605,24.823 105.675,28.639 100.468,28.639 ZM100.468,13.301 C97.113,13.301 94.610,15.853 94.610,19.517 C94.610,23.054 97.188,25.733 100.468,25.733 C104.148,25.733 106.351,23.004 106.351,19.517 C106.351,15.853 103.772,13.301 100.468,13.301 ZM80.889,33.414 C79.862,33.414 79.111,33.010 78.460,32.530 L79.387,30.332 C79.687,30.509 80.112,30.736 80.563,30.736 C81.289,30.736 81.815,30.155 82.290,28.967 L82.541,28.361 L77.334,16.990 L80.788,16.990 L83.417,23.206 C83.642,23.762 83.792,24.292 83.968,24.848 C84.068,24.318 84.168,23.762 84.368,23.181 L86.396,16.990 L89.675,16.990 L85.244,28.361 C83.592,32.429 82.541,33.414 80.889,33.414 ZM72.247,15.575 L66.714,23.433 L66.264,23.433 L60.681,15.651 L60.681,28.361 L57.602,28.361 L57.602,10.673 L60.706,10.673 L66.689,18.936 L72.397,10.673 L75.301,10.673 L75.301,28.361 L72.247,28.361 L72.247,15.575 Z" class="cls-1"/>
    </symbol>
    <symbol id="logo_left">
      <path d="M35.323,25.107 C33.227,24.601 30.963,25.503 29.830,27.465 C28.707,29.409 29.041,31.794 30.493,33.357 C30.932,33.830 30.825,34.585 30.266,34.907 L21.078,40.211 C20.411,40.595 19.579,40.115 19.579,39.346 L19.579,22.125 C19.579,21.768 19.769,21.439 20.078,21.260 L35.067,12.609 C35.733,12.225 36.566,12.705 36.566,13.474 L36.566,24.139 C36.566,24.789 35.956,25.259 35.323,25.107 ZM34.138,10.839 L19.079,19.530 C18.770,19.708 18.389,19.708 18.080,19.530 L3.021,10.839 C2.355,10.454 2.355,9.493 3.021,9.109 L12.303,3.751 C12.865,3.427 13.593,3.710 13.767,4.335 C14.354,6.441 16.286,7.986 18.580,7.986 C20.873,7.986 22.806,6.441 23.392,4.335 C23.567,3.710 24.294,3.427 24.856,3.751 L34.138,9.109 C34.804,9.493 34.804,10.454 34.138,10.839 ZM18.580,5.988 C16.924,5.988 15.582,4.647 15.582,2.992 C15.582,1.337 16.924,-0.005 18.580,-0.005 C20.235,-0.005 21.577,1.337 21.577,2.992 C21.577,4.647 20.235,5.988 18.580,5.988 ZM17.580,22.125 L17.580,39.346 C17.580,40.115 16.748,40.595 16.081,40.211 L6.893,34.907 C6.334,34.585 6.228,33.830 6.666,33.357 C8.118,31.794 8.452,29.409 7.329,27.465 C6.196,25.503 3.932,24.601 1.836,25.107 C1.203,25.259 0.593,24.789 0.593,24.139 L0.593,13.474 C0.593,12.705 1.426,12.225 2.092,12.609 L17.081,21.260 C17.390,21.439 17.580,21.768 17.580,22.125 ZM1.505,27.367 C2.938,26.539 4.772,27.030 5.599,28.464 C6.427,29.897 5.936,31.730 4.502,32.557 C3.068,33.385 1.235,32.894 0.407,31.460 C-0.420,30.027 0.071,28.194 1.505,27.367 ZM35.655,27.367 C37.088,28.194 37.580,30.027 36.752,31.460 C35.924,32.894 34.091,33.385 32.657,32.557 C31.223,31.730 30.732,29.897 31.560,28.464 C32.388,27.030 34.221,26.539 35.655,27.367 Z" class="cls-2"/>
    </symbol>
  </g>
</svg>
