<svg xmlns="http://www.w3.org/2000/svg" xmlns:xlink="http://www.w3.org/1999/xlink" preserveAspectRatio="xMidYMid" width="174" height="32" viewBox="0 0 174 32">
  <defs>
    <style>
      .cls-1 {
        fill: #606767;
        fill-rule: evenodd;
      }
    </style>
  </defs>
  <g>
    <path d="M173.864,20.123 L167.302,20.123 C167.504,21.497 168.595,22.245 170.028,22.245 C171.138,22.245 172.067,21.841 172.592,21.417 L173.258,23.054 C172.350,23.822 171.057,24.186 169.786,24.186 C166.858,24.186 164.900,22.286 164.900,19.415 C164.900,16.767 166.717,14.645 169.705,14.645 C172.047,14.645 174.005,16.322 174.005,18.870 C174.005,19.435 173.965,19.779 173.864,20.123 ZM169.604,16.585 C168.211,16.585 167.464,17.374 167.222,18.566 L171.683,18.566 C171.703,17.454 170.936,16.585 169.604,16.585 ZM162.011,16.888 C161.204,16.888 160.780,17.333 160.518,17.859 L160.518,23.964 L158.196,23.964 L158.196,14.867 L160.518,14.867 L160.518,15.756 C160.941,15.170 161.507,14.705 162.597,14.705 C163.344,14.705 163.707,14.826 164.010,15.049 L163.182,17.232 C162.738,16.969 162.496,16.888 162.011,16.888 ZM153.449,22.912 C152.965,23.600 151.996,24.085 150.764,24.085 C149.109,24.085 147.918,23.054 147.918,21.295 C147.918,19.294 149.391,18.344 151.229,18.344 C152.036,18.344 152.844,18.607 153.288,18.930 C153.348,17.414 152.945,16.585 151.592,16.585 C150.542,16.585 149.876,16.909 149.210,17.212 L148.624,15.514 C149.412,15.049 150.643,14.645 151.834,14.645 C154.519,14.645 155.468,16.019 155.468,18.425 L155.468,23.964 L153.449,23.964 L153.449,22.912 ZM153.288,20.365 C152.884,20.062 152.359,19.921 151.693,19.921 C150.926,19.921 150.239,20.284 150.239,21.053 C150.239,21.740 150.805,22.124 151.531,22.124 C152.501,22.124 153.005,21.700 153.288,21.295 L153.288,20.365 ZM143.534,18.991 C143.534,17.636 142.787,16.888 141.515,16.888 C140.768,16.888 140.042,17.192 139.517,17.717 L139.517,23.964 L137.195,23.964 L137.195,9.813 L139.517,9.813 L139.517,15.696 C140.102,15.130 141.071,14.705 142.121,14.705 C144.342,14.705 145.856,15.837 145.856,18.687 L145.856,23.964 L143.534,23.964 L143.534,18.991 ZM130.127,24.186 C128.310,24.186 126.190,23.398 125.503,21.962 L126.917,20.264 C127.744,21.336 129.077,21.861 130.167,21.861 C131.338,21.861 132.226,21.275 132.226,20.204 C132.226,17.414 125.826,18.101 125.826,13.492 C125.826,11.370 127.482,9.591 130.227,9.591 C131.964,9.591 133.417,10.177 134.265,11.107 L132.933,12.967 C132.246,12.300 131.560,11.916 130.429,11.916 C129.198,11.916 128.451,12.542 128.451,13.472 C128.451,16.403 134.851,15.473 134.851,20.183 C134.851,22.569 132.771,24.186 130.127,24.186 ZM118.031,20.123 C118.233,21.497 119.324,22.245 120.757,22.245 C121.867,22.245 122.796,21.841 123.321,21.417 L123.987,23.054 C123.079,23.822 121.786,24.186 120.515,24.186 C117.587,24.186 115.629,22.286 115.629,19.415 C115.629,16.767 117.446,14.645 120.434,14.645 C122.776,14.645 124.734,16.322 124.734,18.870 C124.734,19.435 124.694,19.779 124.593,20.123 L118.031,20.123 ZM120.333,16.585 C118.940,16.585 118.193,17.374 117.951,18.566 L122.412,18.566 C122.433,17.454 121.665,16.585 120.333,16.585 ZM111.044,22.023 C112.033,22.023 112.800,21.558 113.386,20.911 L114.476,22.609 C113.709,23.640 112.336,24.186 110.862,24.186 C107.915,24.186 105.936,22.286 105.936,19.415 C105.936,16.767 107.874,14.645 110.640,14.645 C112.134,14.645 113.446,15.029 114.294,15.878 L113.204,17.717 C112.518,17.050 111.771,16.828 110.943,16.828 C109.651,16.828 108.420,17.818 108.420,19.415 C108.420,21.032 109.671,22.023 111.044,22.023 ZM102.017,17.050 L98.424,17.050 L98.424,23.964 L96.102,23.964 L96.102,13.735 C96.102,10.864 97.738,9.591 100.140,9.591 C102.320,9.591 103.431,10.541 104.036,11.491 L102.361,12.805 C102.017,12.259 101.412,11.774 100.564,11.774 C99.171,11.774 98.424,12.320 98.424,13.937 L98.424,14.867 L104.339,14.867 L104.339,23.964 L102.017,23.964 L102.017,17.050 ZM93.295,11.774 C92.507,11.774 91.962,12.320 91.962,13.573 L91.962,14.867 L94.425,14.867 L94.425,17.050 L91.962,17.050 L91.962,23.964 L89.640,23.964 L89.640,13.391 C89.640,10.864 90.852,9.591 92.871,9.591 C93.961,9.591 94.950,9.955 95.414,10.440 L94.627,12.219 C94.324,11.916 93.819,11.774 93.295,11.774 ZM80.350,24.186 C76.151,24.186 73.002,21.295 73.002,16.888 C73.002,12.785 76.010,9.591 80.350,9.591 C84.549,9.591 87.719,12.482 87.719,16.888 C87.719,21.134 84.549,24.186 80.350,24.186 ZM80.350,11.916 C77.645,11.916 75.626,13.957 75.626,16.888 C75.626,19.718 77.705,21.861 80.350,21.861 C83.318,21.861 85.094,19.678 85.094,16.888 C85.094,13.957 83.015,11.916 80.350,11.916 ZM64.560,28.007 C63.733,28.007 63.127,27.683 62.602,27.299 L63.349,25.540 C63.591,25.682 63.934,25.864 64.298,25.864 C64.883,25.864 65.307,25.399 65.691,24.449 L65.893,23.964 L61.694,14.867 L64.480,14.867 L66.599,19.840 C66.781,20.284 66.902,20.709 67.044,21.154 C67.124,20.729 67.205,20.284 67.367,19.820 L69.002,14.867 L71.646,14.867 L68.073,23.964 C66.741,27.218 65.893,28.007 64.560,28.007 ZM57.591,13.735 L53.130,20.022 L52.766,20.022 L48.264,13.796 L48.264,23.964 L45.781,23.964 L45.781,9.813 L48.284,9.813 L53.109,16.423 L57.712,9.813 L60.054,9.813 L60.054,23.964 L57.591,23.964 L57.591,13.735 Z" class="cls-1"/>
    <path d="M27.570,19.914 C25.933,19.513 24.166,20.228 23.282,21.785 C22.405,23.327 22.666,25.218 23.799,26.458 C24.142,26.833 24.059,27.432 23.623,27.688 L16.451,31.894 C15.931,32.199 15.281,31.818 15.281,31.208 L15.281,17.549 C15.281,17.266 15.430,17.005 15.671,16.863 L27.369,10.001 C27.889,9.696 28.539,10.078 28.539,10.688 L28.539,19.146 C28.539,19.662 28.063,20.035 27.570,19.914 ZM26.644,8.597 L14.891,15.491 C14.650,15.632 14.353,15.632 14.111,15.491 L2.358,8.597 C1.838,8.292 1.838,7.529 2.358,7.225 L9.602,2.975 C10.041,2.718 10.609,2.943 10.745,3.438 C11.203,5.109 12.711,6.334 14.501,6.334 C16.291,6.334 17.800,5.109 18.258,3.438 C18.393,2.943 18.961,2.718 19.400,2.975 L26.644,7.225 C27.164,7.529 27.164,8.292 26.644,8.597 ZM14.501,4.750 C13.209,4.750 12.162,3.686 12.162,2.373 C12.162,1.060 13.209,-0.004 14.501,-0.004 C15.793,-0.004 16.841,1.060 16.841,2.373 C16.841,3.686 15.793,4.750 14.501,4.750 ZM13.721,17.549 L13.721,31.208 C13.721,31.818 13.071,32.199 12.551,31.894 L5.380,27.688 C4.944,27.432 4.861,26.833 5.203,26.458 C6.336,25.218 6.597,23.327 5.721,21.785 C4.836,20.228 3.069,19.513 1.433,19.914 C0.939,20.035 0.463,19.662 0.463,19.146 L0.463,10.688 C0.463,10.078 1.113,9.696 1.633,10.001 L13.331,16.863 C13.573,17.005 13.721,17.266 13.721,17.549 ZM1.174,21.707 C2.293,21.050 3.724,21.440 4.370,22.577 C5.016,23.714 4.633,25.167 3.514,25.824 C2.395,26.480 0.964,26.091 0.318,24.954 C-0.328,23.817 0.055,22.363 1.174,21.707 ZM27.828,21.707 C28.947,22.363 29.331,23.817 28.684,24.954 C28.038,26.091 26.607,26.480 25.488,25.824 C24.369,25.167 23.986,23.714 24.632,22.577 C25.278,21.440 26.709,21.050 27.828,21.707 Z" class="cls-1"/>
  </g>
</svg>
