<svg xmlns="http://www.w3.org/2000/svg" xmlns:xlink="http://www.w3.org/1999/xlink" preserveAspectRatio="xMidYMid" width="51" height="30" viewBox="0 0 51 30">
  <defs>
    <style>
      .cls-1 {
        fill: #f1f3f2;
      }

      .cls-2 {
        fill: #4cbaea;
        fill-rule: evenodd;
      }
    </style>
  </defs>
  <g>
    <rect width="51" height="30" rx="1" ry="1" class="cls-1"/>
    <path d="M39.655,15.025 C41.042,16.670 42.424,18.334 43.827,20.000 L38.430,20.000 C38.298,20.000 38.215,19.952 38.130,19.847 C37.753,19.380 37.367,18.880 36.970,18.400 C36.603,18.821 36.237,19.260 35.897,19.683 C35.721,19.901 35.544,20.000 35.263,20.000 C28.417,19.990 21.571,19.993 14.725,20.000 C14.527,20.000 14.434,19.938 14.367,19.736 C14.237,19.343 14.071,18.965 13.932,18.576 C13.884,18.442 13.820,18.396 13.689,18.400 L12.624,18.400 C12.557,18.403 12.461,18.484 12.433,18.551 C12.255,18.979 12.097,19.417 11.922,19.846 C11.896,19.909 11.812,19.999 11.754,20.000 L7.000,20.000 L10.965,10.245 C11.036,10.068 11.118,10.000 11.300,10.000 L20.421,10.000 C20.594,10.000 20.675,10.065 20.742,10.235 C21.046,11.003 21.365,11.765 21.696,12.573 L22.662,10.196 C22.715,10.061 22.779,10.000 22.923,10.000 L35.613,10.000 C35.748,10.000 35.827,10.052 35.909,10.157 C36.266,10.615 36.632,11.066 37.004,11.532 C37.413,11.057 37.811,10.588 38.219,10.129 C38.277,10.063 38.381,10.001 38.464,10.000 L44.000,10.000 C44.000,10.000 41.101,13.357 39.655,15.025 ZM26.325,11.434 L23.786,11.434 C23.732,11.435 23.657,11.544 23.629,11.614 L21.777,16.281 L19.781,11.617 C19.723,11.480 19.658,11.432 19.518,11.434 L17.093,11.434 C17.093,13.665 17.093,15.897 17.093,18.109 L14.474,11.632 C14.416,11.485 14.349,11.432 14.201,11.434 C13.540,11.443 12.879,11.442 12.218,11.434 C12.072,11.432 12.001,11.480 11.942,11.628 L9.168,18.602 C9.731,18.602 10.265,18.614 10.800,18.602 C10.855,18.600 10.931,18.495 10.958,18.426 C11.132,17.996 11.299,17.563 11.459,17.126 C11.501,17.010 11.555,16.973 11.670,16.974 C12.672,16.979 13.674,16.979 14.676,16.974 C14.792,16.973 14.847,17.012 14.889,17.127 C15.042,17.550 15.210,17.967 15.362,18.391 C15.416,18.543 15.486,18.603 15.647,18.602 L18.686,18.602 C18.686,16.746 18.686,14.909 18.686,13.078 L20.931,18.416 C20.987,18.554 21.050,18.607 21.191,18.602 L22.213,18.602 C22.352,18.606 22.420,18.558 22.477,18.419 C23.160,16.746 24.704,13.108 24.720,13.113 C24.720,14.936 24.720,16.780 24.720,18.602 L26.325,18.602 C26.325,16.217 26.325,13.821 26.325,11.434 ZM38.830,11.547 L36.885,13.783 C36.311,13.055 35.746,12.347 35.192,11.628 C35.083,11.487 34.974,11.433 34.805,11.434 L27.722,11.434 C27.722,13.824 27.722,16.209 27.722,18.602 L34.701,18.602 C34.779,18.601 34.876,18.542 34.930,18.480 C35.365,17.986 36.881,16.213 36.881,16.213 C36.915,16.270 38.607,18.344 38.607,18.344 C38.757,18.532 38.908,18.610 39.138,18.602 L40.883,18.602 C39.873,17.401 38.885,16.200 37.897,15.026 C38.927,13.833 39.945,12.650 40.995,11.434 C40.300,11.434 39.660,11.426 39.021,11.434 C38.956,11.435 38.878,11.494 38.830,11.547 ZM33.081,17.103 L29.301,17.103 L29.301,15.682 L33.081,15.682 L33.081,14.197 L29.301,14.197 L29.301,12.928 L33.081,12.928 C33.081,12.928 33.081,12.149 33.081,11.770 C33.096,11.761 33.066,11.753 33.081,11.745 C34.000,12.829 34.918,13.914 35.845,15.007 C34.919,16.058 34.032,17.097 33.081,18.177 L33.081,17.103 ZM13.171,12.644 L14.254,15.488 L12.089,15.488 L13.171,12.644 Z" class="cls-2"/>
  </g>
</svg>
