<svg xmlns="http://www.w3.org/2000/svg" xmlns:xlink="http://www.w3.org/1999/xlink" preserveAspectRatio="xMidYMid" width="51" height="30" viewBox="0 0 51 30">
  <defs>
    <style>
      .cls-1 {
        fill: #f1f3f2;
      }

      .cls-2 {
        fill: #faa519;
      }

      .cls-2, .cls-3 {
        fill-rule: evenodd;
      }

      .cls-3 {
        fill: #00579f;
      }
    </style>
  </defs>
  <g>
    <rect width="51" height="30" rx="1" ry="1" class="cls-1"/>
    <path d="M9.003,10.286 L9.036,10.092 L13.068,10.092 C13.612,10.113 14.050,10.289 14.201,10.879 L15.078,15.160 C14.217,12.921 12.140,11.058 9.003,10.286 Z" class="cls-2"/>
    <path d="M38.893,10.186 L36.884,10.186 C36.261,10.186 35.796,10.358 35.521,10.990 L31.660,19.868 L34.391,19.868 C34.391,19.868 34.836,18.674 34.937,18.413 C35.236,18.413 37.890,18.417 38.269,18.417 C38.346,18.755 38.585,19.868 38.585,19.868 L40.998,19.868 L38.893,10.186 ZM35.685,16.430 C35.901,15.873 36.722,13.722 36.722,13.722 C36.708,13.749 36.935,13.162 37.068,12.797 L37.244,13.633 C37.244,13.633 37.742,15.945 37.847,16.430 L35.685,16.430 ZM31.843,16.698 C31.824,18.710 30.048,20.008 27.314,20.008 C26.148,19.996 25.026,19.762 24.416,19.492 L24.782,17.323 L25.118,17.478 C25.972,17.839 26.525,17.986 27.566,17.986 C28.314,17.986 29.115,17.689 29.121,17.040 C29.126,16.616 28.787,16.313 27.774,15.839 C26.786,15.374 25.479,14.597 25.495,13.206 C25.510,11.323 27.321,10.009 29.892,10.009 C30.899,10.009 31.706,10.220 32.221,10.416 L31.869,12.516 L31.634,12.404 C31.155,12.208 30.540,12.019 29.688,12.033 C28.670,12.033 28.197,12.463 28.197,12.866 C28.192,13.320 28.748,13.618 29.659,14.067 C31.160,14.757 31.854,15.596 31.843,16.698 ZM20.763,10.184 L16.667,19.853 L13.915,19.857 L11.586,11.779 C13.260,12.867 14.686,14.593 15.189,15.793 L15.460,16.791 L18.007,10.185 L20.763,10.184 L20.763,10.184 ZM21.814,10.176 L24.416,10.176 L22.788,19.864 L20.188,19.864 L21.814,10.176 Z" class="cls-3"/>
  </g>
</svg>
