<svg xmlns="http://www.w3.org/2000/svg" xmlns:xlink="http://www.w3.org/1999/xlink" preserveAspectRatio="xMidYMid" width="51" height="30" viewBox="0 0 51 30">
  <defs>
    <style>
      .cls-1 {
        fill: #f1f3f2;
      }

      .cls-2 {
        fill: #053385;
      }

      .cls-2, .cls-3 {
        fill-rule: evenodd;
      }

      .cls-3 {
        fill: #199ddb;
      }
    </style>
  </defs>
  <g>
    <rect width="51" height="30" rx="1" ry="1" class="cls-1"/>
    <path d="M27.467,13.926 L23.109,20.826 C23.038,20.935 22.922,21.000 22.798,21.000 L21.488,21.000 C21.304,21.000 21.197,20.777 21.303,20.616 L22.660,18.563 L21.218,13.866 C21.167,13.708 21.277,13.544 21.432,13.544 L22.720,13.544 C22.887,13.544 23.035,13.662 23.083,13.833 L23.849,16.733 L25.657,13.722 C25.727,13.610 25.844,13.544 25.970,13.544 L27.280,13.544 C27.463,13.544 27.571,13.764 27.467,13.926 ZM19.482,18.983 L18.308,18.983 C18.168,18.983 18.062,18.850 18.083,18.702 L18.142,18.314 C18.142,18.314 17.498,19.098 16.337,19.098 C15.660,19.098 15.092,18.889 14.695,18.387 C14.261,17.841 14.084,17.059 14.209,16.240 C14.449,14.598 15.679,13.459 17.119,13.459 C17.748,13.459 18.377,13.575 18.660,14.014 L18.751,14.156 L18.808,13.734 C18.825,13.615 18.921,13.528 19.032,13.528 L20.336,13.528 C20.475,13.528 20.582,13.662 20.560,13.809 L19.855,18.641 C19.826,18.839 19.668,18.983 19.482,18.983 ZM18.298,15.292 C18.100,15.043 17.799,14.942 17.429,14.942 C16.686,14.942 16.085,15.464 15.968,16.256 C15.906,16.644 15.979,16.993 16.172,17.238 C16.366,17.485 16.669,17.615 17.047,17.615 C17.802,17.615 18.393,17.079 18.519,16.280 C18.576,15.894 18.498,15.543 18.298,15.292 ZM11.430,16.404 L10.569,16.404 C10.383,16.404 10.224,16.550 10.195,16.747 L9.898,18.673 C9.869,18.870 9.711,19.015 9.525,19.015 L8.224,19.015 C8.085,19.015 7.978,18.881 8.000,18.734 L9.101,11.342 C9.130,11.145 9.289,11.000 9.475,11.000 L12.198,11.000 C13.109,11.000 13.795,11.258 14.182,11.746 C14.534,12.189 14.651,12.823 14.529,13.629 C14.259,15.474 13.224,16.404 11.430,16.404 ZM12.380,12.920 C12.140,12.620 11.676,12.620 11.185,12.620 L10.996,12.620 C10.884,12.620 10.789,12.707 10.772,12.825 L10.484,14.781 L10.895,14.781 C11.617,14.781 12.363,14.781 12.512,13.734 C12.566,13.366 12.523,13.099 12.380,12.920 Z" class="cls-2"/>
    <path d="M41.897,18.657 C41.868,18.854 41.710,18.999 41.524,18.999 L40.400,18.999 C40.260,18.999 40.154,18.866 40.176,18.718 L41.293,11.205 C41.310,11.087 41.405,11.000 41.517,11.000 L42.775,11.000 C42.915,11.000 43.021,11.134 42.999,11.281 L41.897,18.657 ZM38.902,18.983 L37.728,18.983 C37.588,18.983 37.482,18.850 37.504,18.702 L37.562,18.314 C37.562,18.314 36.918,19.098 35.757,19.098 C35.080,19.098 34.513,18.889 34.115,18.387 C33.682,17.841 33.505,17.059 33.629,16.240 C33.869,14.598 35.099,13.475 36.540,13.475 C37.168,13.475 37.798,13.575 38.080,14.014 L38.171,14.156 L38.228,13.734 C38.246,13.615 38.341,13.528 38.453,13.528 L39.756,13.528 C39.896,13.528 40.003,13.662 39.981,13.809 L39.276,18.641 C39.247,18.839 39.088,18.983 38.902,18.983 ZM37.718,15.292 C37.520,15.043 37.219,14.911 36.849,14.911 C36.106,14.911 35.505,15.464 35.388,16.256 C35.327,16.644 35.399,16.993 35.592,17.238 C35.787,17.485 36.090,17.615 36.468,17.615 C37.222,17.615 37.813,17.079 37.939,16.280 C37.997,15.894 37.918,15.543 37.718,15.292 ZM30.851,16.404 L29.989,16.404 C29.803,16.404 29.644,16.550 29.616,16.747 L29.303,18.760 C29.283,18.898 29.172,18.999 29.042,18.999 L27.644,18.999 C27.505,18.999 27.399,18.866 27.420,18.718 L28.521,11.342 C28.551,11.145 28.709,11.000 28.895,11.000 L31.618,11.000 C32.529,11.000 33.215,11.258 33.603,11.746 C33.955,12.189 34.072,12.823 33.950,13.629 C33.680,15.474 32.644,16.404 30.851,16.404 ZM31.800,12.920 C31.561,12.620 31.096,12.620 30.605,12.620 L30.416,12.620 C30.305,12.620 30.210,12.707 30.192,12.825 L29.904,14.781 L30.315,14.781 C31.037,14.781 31.783,14.781 31.932,13.734 C31.986,13.366 31.943,13.099 31.800,12.920 Z" class="cls-3"/>
  </g>
</svg>
