<svg xmlns="http://www.w3.org/2000/svg" xmlns:xlink="http://www.w3.org/1999/xlink" preserveAspectRatio="xMidYMid" width="51" height="30" viewBox="0 0 51 30">
  <defs>
    <style>
      .cls-1 {
        fill: #f1f3f2;
      }

      .cls-2 {
        fill: #4db223;
      }

      .cls-2, .cls-3, .cls-4 {
        fill-rule: evenodd;
      }

      .cls-3 {
        fill: #e4002e;
      }

      .cls-4 {
        fill: #0066bd;
      }
    </style>
  </defs>
  <g>
    <rect width="51" height="30" rx="1" ry="1" class="cls-1"/>
    <path d="M37.000,20.912 C37.000,21.004 36.996,21.096 36.991,21.185 C36.984,21.266 36.974,21.343 36.964,21.421 C36.954,21.471 36.944,21.525 36.934,21.574 C36.924,21.616 36.918,21.659 36.908,21.698 C36.898,21.733 36.888,21.768 36.879,21.804 C36.869,21.835 36.862,21.868 36.852,21.896 C36.843,21.924 36.833,21.952 36.823,21.981 C36.813,22.009 36.807,22.034 36.797,22.059 C36.787,22.084 36.777,22.105 36.767,22.130 C36.761,22.151 36.750,22.175 36.741,22.197 C36.731,22.218 36.721,22.240 36.714,22.260 C36.705,22.279 36.695,22.299 36.685,22.321 C36.675,22.338 36.669,22.356 36.659,22.374 C36.649,22.392 36.640,22.413 36.629,22.431 C36.619,22.444 36.613,22.462 36.603,22.480 C36.593,22.498 36.583,22.512 36.573,22.530 C36.567,22.544 36.557,22.561 36.547,22.576 C36.537,22.593 36.528,22.607 36.521,22.622 C36.511,22.636 36.501,22.650 36.492,22.665 C36.482,22.678 36.475,22.693 36.465,22.710 C36.456,22.721 36.446,22.735 36.436,22.749 C36.430,22.763 36.420,22.774 36.409,22.788 C36.399,22.802 36.390,22.813 36.380,22.827 C36.373,22.838 36.363,22.852 36.354,22.862 C36.344,22.877 36.334,22.887 36.325,22.897 C36.318,22.912 36.308,22.923 36.298,22.933 C36.289,22.947 36.278,22.958 36.272,22.968 C36.262,22.979 36.252,22.990 36.242,23.001 C36.232,23.011 36.226,23.022 36.216,23.032 C36.206,23.042 36.196,23.053 36.186,23.064 C36.177,23.071 36.170,23.081 36.160,23.092 C36.151,23.103 36.141,23.110 36.131,23.120 C36.124,23.131 36.115,23.142 36.105,23.149 C36.095,23.159 36.085,23.170 36.079,23.177 C36.069,23.188 36.058,23.195 36.048,23.206 C36.039,23.216 36.029,23.224 36.022,23.231 C36.012,23.241 36.003,23.248 35.993,23.259 C35.986,23.266 35.976,23.273 35.967,23.283 C35.957,23.291 35.947,23.298 35.938,23.308 C35.931,23.315 35.921,23.322 35.911,23.330 C35.901,23.341 35.891,23.347 35.881,23.354 C35.875,23.361 35.865,23.369 35.855,23.376 L35.826,23.400 C35.819,23.408 35.809,23.415 35.800,23.421 C35.790,23.428 35.780,23.436 35.770,23.439 C35.764,23.447 35.754,23.457 35.744,23.460 C35.734,23.467 35.724,23.475 35.718,23.482 C35.707,23.489 35.697,23.495 35.688,23.499 C35.678,23.506 35.671,23.514 35.661,23.521 C35.652,23.524 35.642,23.532 35.632,23.538 C35.625,23.542 35.616,23.549 35.606,23.556 L35.583,23.577 C35.573,23.581 35.563,23.588 35.554,23.592 C35.547,23.599 35.537,23.606 35.527,23.609 C35.518,23.616 35.511,23.620 35.498,23.627 C35.491,23.630 35.482,23.638 35.471,23.641 C35.461,23.645 35.455,23.651 35.445,23.655 C35.435,23.662 35.425,23.666 35.415,23.673 C35.406,23.677 35.399,23.684 35.389,23.687 C35.380,23.690 35.370,23.698 35.360,23.701 L35.334,23.716 L35.304,23.729 C35.298,23.733 35.288,23.736 35.278,23.744 C35.268,23.747 35.258,23.751 35.252,23.755 C35.241,23.761 35.232,23.765 35.222,23.768 C35.212,23.772 35.205,23.775 35.196,23.779 C35.186,23.783 35.176,23.790 35.167,23.794 C35.160,23.797 35.150,23.800 35.140,23.804 L35.114,23.814 C35.104,23.818 35.094,23.822 35.084,23.825 C35.074,23.829 35.068,23.833 35.058,23.835 C35.048,23.839 35.038,23.843 35.029,23.846 L35.002,23.853 L34.973,23.864 L34.947,23.871 C34.937,23.874 34.927,23.878 34.917,23.882 C34.907,23.885 34.900,23.885 34.891,23.889 C34.881,23.892 34.871,23.896 34.861,23.896 L34.835,23.903 L34.809,23.913 L34.780,23.920 C34.769,23.920 34.763,23.924 34.753,23.924 C34.743,23.928 34.733,23.931 34.723,23.931 L34.697,23.939 L34.668,23.946 C34.658,23.946 34.651,23.949 34.642,23.949 L34.612,23.956 L34.586,23.959 L34.556,23.963 L34.530,23.967 C34.520,23.970 34.510,23.970 34.504,23.970 C34.494,23.974 34.484,23.974 34.474,23.974 C34.465,23.974 34.455,23.978 34.448,23.978 C34.438,23.978 34.429,23.981 34.418,23.981 C34.408,23.981 34.402,23.981 34.392,23.985 C34.382,23.985 34.372,23.985 34.363,23.985 C34.353,23.987 34.346,23.987 34.336,23.987 L34.307,23.987 C34.300,23.991 34.291,23.991 34.281,23.991 C34.271,23.991 34.261,23.991 34.251,23.991 L34.169,23.991 L34.143,23.995 L29.954,23.995 L29.954,18.006 L34.465,18.006 C34.474,18.006 34.481,18.006 34.491,18.006 C34.501,18.006 34.510,18.002 34.520,18.002 L34.546,18.002 L34.575,17.998 L34.602,17.998 L34.628,17.995 L34.658,17.995 C34.668,17.991 34.678,17.991 34.684,17.991 C34.694,17.991 34.704,17.988 34.714,17.988 L34.740,17.984 C34.750,17.984 34.759,17.980 34.769,17.980 C34.780,17.978 34.785,17.978 34.795,17.978 C34.806,17.974 34.816,17.974 34.825,17.970 L34.852,17.967 L34.881,17.963 C34.891,17.960 34.897,17.960 34.907,17.956 C34.917,17.956 34.927,17.952 34.933,17.949 L34.950,17.895 C34.960,17.895 34.966,17.892 34.976,17.892 C34.986,17.888 34.995,17.885 35.005,17.881 C35.016,17.881 35.022,17.877 35.031,17.874 C35.042,17.874 35.052,17.870 35.062,17.866 C35.071,17.863 35.078,17.859 35.088,17.859 C35.098,17.856 35.107,17.853 35.117,17.849 L35.143,17.842 C35.153,17.838 35.163,17.835 35.173,17.831 C35.179,17.827 35.189,17.824 35.199,17.820 L35.229,17.810 C35.236,17.807 35.245,17.803 35.255,17.799 C35.265,17.796 35.272,17.792 35.281,17.785 C35.291,17.781 35.301,17.779 35.311,17.775 C35.320,17.771 35.327,17.768 35.337,17.760 C35.346,17.757 35.356,17.753 35.367,17.746 C35.373,17.742 35.382,17.740 35.393,17.732 C35.403,17.729 35.413,17.725 35.422,17.718 C35.429,17.714 35.439,17.707 35.449,17.704 C35.458,17.701 35.465,17.693 35.475,17.686 C35.485,17.682 35.494,17.675 35.504,17.672 C35.514,17.665 35.521,17.658 35.530,17.654 C35.540,17.647 35.550,17.643 35.560,17.636 C35.570,17.629 35.576,17.623 35.587,17.619 C35.596,17.612 35.606,17.605 35.616,17.597 C35.625,17.591 35.632,17.584 35.642,17.576 C35.652,17.569 35.661,17.562 35.671,17.555 C35.681,17.548 35.688,17.541 35.697,17.534 C35.707,17.527 35.718,17.516 35.724,17.509 C35.734,17.502 35.744,17.491 35.754,17.484 C35.764,17.474 35.773,17.467 35.780,17.460 C35.790,17.449 35.800,17.439 35.809,17.431 C35.819,17.421 35.826,17.410 35.835,17.402 C35.845,17.389 35.855,17.382 35.865,17.371 C35.875,17.361 35.881,17.350 35.891,17.339 C35.901,17.325 35.911,17.315 35.921,17.304 C35.931,17.289 35.938,17.279 35.947,17.265 C35.957,17.251 35.967,17.237 35.976,17.226 C35.986,17.212 35.993,17.194 36.003,17.180 C36.012,17.166 36.022,17.148 36.029,17.134 C36.043,17.116 36.048,17.099 36.058,17.081 C36.069,17.063 36.079,17.042 36.085,17.021 C36.098,16.999 36.105,16.978 36.115,16.953 C36.124,16.929 36.134,16.900 36.141,16.875 C36.151,16.840 36.160,16.808 36.170,16.773 C36.180,16.723 36.189,16.670 36.196,16.617 C36.206,16.553 36.210,16.490 36.210,16.419 C36.210,16.355 36.206,16.288 36.196,16.228 C36.189,16.175 36.180,16.125 36.170,16.076 C36.160,16.043 36.151,16.012 36.141,15.980 C36.134,15.952 36.124,15.927 36.115,15.902 C36.105,15.881 36.095,15.859 36.085,15.838 C36.079,15.817 36.069,15.800 36.058,15.779 C36.048,15.764 36.043,15.746 36.029,15.729 C36.022,15.714 36.012,15.701 36.003,15.683 C35.993,15.668 35.986,15.655 35.976,15.644 C35.967,15.629 35.957,15.616 35.947,15.601 C35.938,15.590 35.931,15.580 35.921,15.566 C35.911,15.555 35.901,15.545 35.891,15.534 C35.885,15.523 35.875,15.513 35.865,15.502 C35.855,15.491 35.845,15.481 35.835,15.471 C35.826,15.463 35.819,15.452 35.809,15.442 C35.800,15.435 35.790,15.424 35.780,15.417 C35.773,15.406 35.764,15.400 35.754,15.393 C35.744,15.382 35.734,15.375 35.724,15.367 C35.718,15.361 35.707,15.350 35.697,15.343 C35.688,15.336 35.681,15.328 35.671,15.322 C35.661,15.315 35.652,15.307 35.642,15.300 C35.632,15.293 35.625,15.287 35.616,15.283 C35.606,15.276 35.596,15.268 35.587,15.261 C35.576,15.258 35.570,15.250 35.560,15.244 C35.550,15.237 35.540,15.233 35.530,15.226 C35.521,15.222 35.514,15.215 35.504,15.209 C35.494,15.205 35.485,15.198 35.475,15.194 C35.465,15.191 35.458,15.183 35.449,15.180 C35.439,15.173 35.429,15.170 35.422,15.163 C35.413,15.159 35.403,15.155 35.393,15.148 C35.382,15.144 35.377,15.141 35.367,15.134 C35.356,15.131 35.346,15.127 35.337,15.124 C35.327,15.120 35.320,15.113 35.311,15.109 C35.301,15.105 35.291,15.102 35.281,15.099 C35.272,15.095 35.265,15.092 35.255,15.085 C35.245,15.081 35.236,15.077 35.229,15.074 C35.219,15.074 35.209,15.066 35.199,15.066 C35.189,15.060 35.179,15.060 35.173,15.056 C35.163,15.053 35.153,15.049 35.143,15.046 C35.134,15.042 35.124,15.038 35.117,15.035 L35.088,15.027 C35.078,15.024 35.071,15.021 35.062,15.018 C35.052,15.018 35.042,15.014 35.031,15.010 C35.022,15.010 35.016,15.007 35.005,15.003 C34.995,14.999 34.986,14.999 34.976,14.996 C34.966,14.992 34.960,14.992 34.950,14.989 C34.940,14.986 34.930,14.986 34.921,14.982 C34.911,14.982 34.904,14.979 34.894,14.979 L34.868,14.971 L34.838,14.968 C34.828,14.964 34.822,14.964 34.812,14.960 L34.783,14.957 C34.773,14.953 34.766,14.953 34.756,14.953 L34.727,14.950 L34.701,14.947 L34.671,14.943 L34.645,14.940 L34.615,14.936 L34.589,14.932 L34.563,14.932 L34.563,14.897 L34.589,14.893 L34.615,14.886 C34.625,14.886 34.635,14.886 34.645,14.882 L34.671,14.875 C34.681,14.875 34.691,14.873 34.701,14.869 L34.727,14.865 C34.737,14.862 34.747,14.858 34.756,14.858 C34.766,14.854 34.773,14.851 34.783,14.851 C34.792,14.847 34.802,14.844 34.812,14.840 C34.822,14.840 34.828,14.836 34.838,14.834 C34.848,14.830 34.858,14.830 34.868,14.826 C34.874,14.823 34.885,14.819 34.894,14.815 C34.904,14.812 34.911,14.808 34.921,14.805 C34.930,14.801 34.940,14.797 34.950,14.795 C34.960,14.791 34.966,14.787 34.976,14.784 C34.986,14.780 34.995,14.776 35.005,14.773 C35.016,14.769 35.022,14.766 35.031,14.759 C35.042,14.756 35.052,14.752 35.062,14.748 C35.071,14.741 35.078,14.738 35.088,14.734 C35.098,14.730 35.107,14.723 35.117,14.720 C35.127,14.713 35.134,14.709 35.143,14.706 C35.153,14.699 35.163,14.695 35.173,14.688 C35.179,14.684 35.189,14.678 35.199,14.674 C35.209,14.667 35.219,14.663 35.229,14.656 C35.236,14.649 35.245,14.646 35.255,14.639 C35.265,14.631 35.275,14.628 35.281,14.621 C35.291,14.613 35.301,14.607 35.311,14.600 C35.320,14.593 35.327,14.585 35.337,14.578 C35.346,14.571 35.356,14.564 35.367,14.557 C35.373,14.550 35.382,14.543 35.393,14.535 C35.403,14.529 35.413,14.518 35.422,14.511 C35.429,14.504 35.439,14.494 35.449,14.487 C35.458,14.476 35.468,14.468 35.475,14.458 C35.485,14.448 35.494,14.440 35.504,14.429 L35.530,14.398 C35.540,14.387 35.550,14.377 35.560,14.366 C35.570,14.355 35.576,14.344 35.587,14.331 C35.596,14.320 35.606,14.306 35.616,14.295 C35.625,14.281 35.632,14.267 35.642,14.256 C35.652,14.242 35.661,14.228 35.671,14.210 C35.681,14.196 35.688,14.182 35.697,14.164 C35.707,14.147 35.718,14.129 35.724,14.111 C35.734,14.093 35.744,14.072 35.754,14.054 C35.764,14.030 35.773,14.008 35.780,13.984 C35.790,13.959 35.800,13.930 35.809,13.902 C35.819,13.870 35.829,13.835 35.835,13.800 C35.849,13.740 35.859,13.683 35.865,13.623 C35.869,13.577 35.871,13.527 35.871,13.477 C35.871,13.428 35.869,13.378 35.865,13.328 C35.859,13.269 35.849,13.209 35.835,13.148 C35.829,13.113 35.819,13.077 35.809,13.046 C35.800,13.018 35.793,12.989 35.780,12.964 C35.773,12.940 35.764,12.918 35.754,12.897 C35.744,12.875 35.734,12.855 35.724,12.836 C35.718,12.819 35.707,12.805 35.697,12.788 C35.688,12.769 35.681,12.756 35.671,12.741 C35.661,12.727 35.652,12.713 35.642,12.699 C35.632,12.684 35.625,12.671 35.616,12.660 C35.606,12.645 35.596,12.635 35.587,12.624 C35.576,12.614 35.570,12.604 35.560,12.593 C35.550,12.582 35.540,12.571 35.530,12.561 C35.521,12.550 35.514,12.492 35.504,12.485 C35.494,12.475 35.485,12.464 35.475,12.457 C35.468,12.447 35.458,12.440 35.449,12.429 C35.439,12.422 35.429,12.414 35.422,12.404 C35.413,12.397 35.403,12.390 35.393,12.383 C35.382,12.375 35.377,12.369 35.367,12.358 C35.356,12.351 35.346,12.344 35.337,12.340 C35.327,12.334 35.320,12.327 35.311,12.319 C35.301,12.312 35.291,12.305 35.281,12.301 C35.275,12.295 35.265,12.288 35.255,12.284 C35.245,12.277 35.236,12.269 35.229,12.266 C35.219,12.259 35.209,12.256 35.199,12.249 C35.189,12.245 35.179,12.238 35.173,12.234 C35.163,12.227 35.153,12.223 35.143,12.221 C35.134,12.213 35.127,12.210 35.117,12.202 C35.107,12.199 35.098,12.195 35.088,12.191 C35.078,12.184 35.071,12.182 35.062,12.178 C35.052,12.174 35.042,12.171 35.031,12.163 C35.022,12.160 35.016,12.156 35.005,12.153 L34.976,12.143 C34.966,12.139 34.960,12.135 34.950,12.132 C34.940,12.128 34.930,12.124 34.921,12.121 C34.911,12.117 34.904,12.114 34.894,12.110 C34.885,12.107 34.874,12.104 34.868,12.104 C34.858,12.100 34.848,12.096 34.838,12.093 C34.828,12.089 34.822,12.086 34.812,12.082 C34.802,12.082 34.792,12.078 34.783,12.075 L34.756,12.068 C34.747,12.068 34.737,12.065 34.727,12.061 C34.717,12.061 34.711,12.057 34.701,12.054 L34.671,12.050 C34.661,12.047 34.654,12.043 34.645,12.043 C34.635,12.039 34.625,12.039 34.615,12.036 L34.589,12.032 C34.579,12.029 34.570,12.029 34.563,12.026 L34.533,12.022 L34.507,12.022 L34.481,12.018 L34.451,12.015 L34.399,12.008 L34.369,12.004 L34.343,12.004 L34.314,12.000 L34.287,12.000 L34.277,11.997 L34.258,11.997 L34.231,11.994 L34.176,11.994 L34.150,11.990 L34.093,11.990 L34.064,11.987 L29.954,11.987 L29.954,9.083 C29.954,8.867 29.974,8.659 30.013,8.453 C30.023,8.411 30.029,8.368 30.039,8.326 C30.049,8.288 30.059,8.251 30.069,8.216 C30.079,8.184 30.085,8.152 30.095,8.121 C30.105,8.093 30.115,8.061 30.125,8.032 C30.134,8.008 30.141,7.979 30.151,7.954 C30.161,7.930 30.170,7.905 30.180,7.880 C30.190,7.859 30.197,7.834 30.206,7.813 C30.216,7.792 30.226,7.770 30.233,7.749 C30.242,7.728 30.253,7.710 30.263,7.689 C30.273,7.671 30.282,7.650 30.289,7.632 C30.299,7.614 30.308,7.597 30.318,7.575 C30.328,7.562 30.335,7.544 30.344,7.526 C30.354,7.508 30.364,7.495 30.374,7.477 C30.384,7.458 30.390,7.445 30.400,7.427 C30.410,7.413 30.420,7.399 30.430,7.381 C30.436,7.367 30.446,7.352 30.456,7.339 C30.466,7.324 30.476,7.310 30.485,7.296 C30.492,7.282 30.502,7.268 30.512,7.254 C30.521,7.239 30.531,7.229 30.538,7.215 C30.548,7.200 30.557,7.190 30.567,7.176 C30.578,7.165 30.584,7.151 30.593,7.140 C30.604,7.126 30.614,7.116 30.623,7.105 C30.630,7.091 30.640,7.081 30.650,7.066 C30.659,7.055 30.669,7.044 30.679,7.034 C30.686,7.023 30.695,7.013 30.705,7.003 C30.715,6.992 30.725,6.981 30.731,6.970 C30.741,6.960 30.751,6.949 30.761,6.938 C30.771,6.928 30.777,6.917 30.787,6.907 C30.797,6.896 30.807,6.889 30.817,6.878 C30.824,6.868 30.833,6.857 30.843,6.850 C30.853,6.840 30.863,6.832 30.872,6.821 C30.879,6.811 30.889,6.804 30.899,6.793 C30.908,6.786 30.918,6.776 30.929,6.769 L30.955,6.741 C30.965,6.733 30.974,6.726 30.984,6.715 C30.991,6.708 31.001,6.702 31.010,6.691 C31.020,6.684 31.030,6.676 31.037,6.666 L31.066,6.645 L31.092,6.620 C31.102,6.613 31.112,6.606 31.122,6.598 C31.128,6.591 31.138,6.585 31.148,6.578 L31.175,6.556 C31.184,6.550 31.194,6.542 31.204,6.535 L31.230,6.514 L31.259,6.496 L31.286,6.478 L31.316,6.457 C31.325,6.453 31.332,6.446 31.342,6.439 L31.371,6.422 C31.381,6.418 31.388,6.411 31.397,6.404 C31.407,6.401 31.417,6.394 31.426,6.390 C31.433,6.383 31.443,6.379 31.453,6.372 C31.463,6.368 31.469,6.362 31.479,6.358 C31.489,6.351 31.499,6.347 31.509,6.340 C31.519,6.337 31.526,6.329 31.535,6.326 C31.545,6.323 31.555,6.316 31.565,6.312 L31.591,6.298 C31.601,6.290 31.610,6.288 31.620,6.280 C31.627,6.277 31.636,6.273 31.646,6.270 C31.657,6.262 31.663,6.259 31.676,6.255 C31.683,6.251 31.693,6.245 31.703,6.241 C31.712,6.238 31.719,6.234 31.729,6.231 C31.739,6.227 31.748,6.220 31.758,6.216 L31.784,6.206 L31.814,6.195 C31.824,6.192 31.830,6.188 31.840,6.184 C31.850,6.181 31.860,6.177 31.870,6.174 L31.896,6.164 C31.906,6.160 31.916,6.156 31.925,6.153 L31.952,6.142 C31.961,6.138 31.971,6.135 31.982,6.135 C31.987,6.132 31.997,6.128 32.008,6.125 C32.018,6.121 32.027,6.117 32.037,6.117 C32.044,6.114 32.054,6.110 32.063,6.106 C32.073,6.106 32.080,6.103 32.092,6.099 L32.119,6.093 C32.128,6.089 32.135,6.086 32.145,6.086 C32.155,6.082 32.165,6.078 32.175,6.078 C32.185,6.075 32.191,6.071 32.201,6.071 L32.231,6.064 L32.257,6.058 C32.266,6.058 32.276,6.054 32.286,6.054 C32.293,6.050 32.302,6.050 32.312,6.047 C32.322,6.047 32.329,6.043 32.338,6.043 L32.369,6.036 C32.378,6.036 32.385,6.032 32.395,6.032 C32.405,6.032 32.414,6.028 32.424,6.028 C32.434,6.025 32.441,6.025 32.450,6.025 C32.460,6.022 32.470,6.022 32.480,6.022 L32.506,6.019 C32.516,6.019 32.526,6.015 32.536,6.015 C32.546,6.015 32.552,6.015 32.562,6.011 L32.588,6.008 L32.617,6.008 C32.627,6.008 32.637,6.008 32.644,6.004 C32.653,6.004 32.663,6.004 32.674,6.004 C32.684,6.004 32.693,6.004 32.700,6.004 L32.729,6.004 C32.739,6.004 32.746,6.000 32.756,6.000 L37.007,6.000 L37.007,20.912 L37.000,20.912 ZM31.379,15.496 L33.024,15.496 C33.031,15.496 33.040,15.496 33.051,15.500 C33.061,15.500 33.071,15.500 33.077,15.500 C33.087,15.500 33.097,15.503 33.106,15.503 C33.116,15.503 33.123,15.503 33.133,15.507 C33.142,15.507 33.152,15.507 33.162,15.510 C33.172,15.510 33.182,15.510 33.188,15.514 C33.195,15.514 33.198,15.514 33.205,15.518 L33.214,15.518 C33.224,15.521 33.234,15.525 33.245,15.528 C33.254,15.528 33.260,15.531 33.271,15.535 C33.281,15.539 33.290,15.542 33.300,15.546 C33.310,15.549 33.316,15.553 33.326,15.557 C33.336,15.560 33.346,15.567 33.355,15.570 C33.362,15.574 33.372,15.577 33.382,15.585 C33.391,15.588 33.402,15.596 33.412,15.599 C33.418,15.606 33.428,15.609 33.438,15.616 C33.448,15.624 33.457,15.631 33.464,15.638 C33.474,15.645 33.484,15.652 33.493,15.659 C33.503,15.666 33.510,15.674 33.520,15.680 C33.529,15.691 33.539,15.573 33.549,15.584 C33.559,15.590 33.565,15.601 33.575,15.612 C33.585,15.623 33.596,15.633 33.605,15.644 C33.615,15.655 33.622,15.665 33.632,15.679 C33.634,15.694 33.644,15.707 33.654,15.722 C33.664,15.736 33.670,15.753 33.680,15.768 C33.690,15.785 33.700,15.807 33.706,15.824 C33.720,15.849 33.727,15.870 33.736,15.895 C33.746,15.927 33.756,15.963 33.763,15.994 C33.775,16.054 33.782,16.119 33.782,16.186 C33.782,16.253 33.775,16.316 33.763,16.377 C33.756,16.408 33.746,16.444 33.736,16.476 C33.727,16.500 33.720,16.522 33.706,16.546 C33.700,16.564 33.690,16.585 33.680,16.603 C33.670,16.617 33.664,16.635 33.654,16.649 C33.644,16.663 33.634,16.678 33.625,16.691 C33.615,16.702 33.608,16.717 33.598,16.726 C33.589,16.737 33.579,16.748 33.569,16.759 C33.562,16.769 33.553,16.761 33.543,16.772 C33.533,16.782 33.523,16.789 33.513,16.796 C33.503,16.807 33.496,16.814 33.487,16.821 C33.477,16.828 33.467,16.835 33.457,16.842 C33.451,16.850 33.441,16.857 33.431,16.859 C33.422,16.867 33.412,16.874 33.402,16.878 C33.395,16.885 33.386,16.888 33.376,16.896 C33.365,16.898 33.359,16.902 33.346,16.909 C33.339,16.913 33.329,16.917 33.319,16.920 C33.310,16.927 33.303,16.931 33.293,16.934 C33.283,16.937 33.274,16.941 33.264,16.945 C33.254,16.945 33.247,16.948 33.238,16.952 C33.228,16.956 33.218,16.959 33.208,16.959 L33.198,16.963 C33.192,16.963 33.188,16.966 33.182,16.966 C33.172,16.966 33.166,16.970 33.156,16.970 C33.145,16.970 33.136,16.973 33.126,16.973 C33.116,16.976 33.109,16.976 33.100,16.976 C33.090,16.976 33.080,16.976 33.071,16.980 C33.061,16.980 33.054,16.980 33.044,16.980 C33.035,16.980 33.024,16.980 33.018,16.984 L31.366,16.984 L31.366,15.496 L31.379,15.496 ZM31.366,14.455 L31.366,13.000 L32.887,13.000 C32.896,13.000 32.906,13.000 32.916,13.000 C32.926,13.004 32.935,13.004 32.942,13.004 C32.952,13.004 32.962,13.004 32.972,13.007 C32.982,13.007 32.992,13.007 32.998,13.011 C33.008,13.011 33.014,13.011 33.021,13.011 L33.028,13.015 C33.035,13.015 33.044,13.018 33.054,13.022 C33.064,13.022 33.073,13.026 33.080,13.029 C33.090,13.029 33.100,13.032 33.109,13.036 C33.119,13.039 33.129,13.043 33.136,13.046 C33.145,13.050 33.156,13.054 33.166,13.057 C33.176,13.061 33.185,13.065 33.192,13.071 C33.202,13.075 33.212,13.078 33.221,13.085 C33.231,13.089 33.238,13.096 33.247,13.100 C33.257,13.107 33.267,13.110 33.277,13.117 C33.283,13.124 33.293,13.128 33.303,13.135 C33.313,13.142 33.323,13.152 33.329,13.160 C33.339,13.167 33.349,13.174 33.359,13.181 C33.369,13.191 33.379,13.199 33.386,13.210 C33.395,13.220 33.405,13.227 33.415,13.238 C33.424,13.248 33.434,13.212 33.441,13.226 C33.451,13.237 33.460,13.251 33.470,13.265 C33.480,13.280 33.487,13.293 33.496,13.308 C33.507,13.325 33.517,13.343 33.526,13.361 C33.536,13.386 33.543,13.406 33.553,13.432 C33.562,13.463 33.572,13.499 33.579,13.531 C33.592,13.588 33.596,13.644 33.596,13.704 C33.596,13.764 33.592,13.824 33.579,13.878 C33.572,13.913 33.562,13.948 33.553,13.980 C33.546,14.002 33.536,14.026 33.526,14.047 C33.517,14.065 33.507,14.082 33.496,14.101 C33.487,14.118 33.480,14.132 33.470,14.147 C33.460,14.160 33.451,14.171 33.441,14.186 C33.434,14.196 33.424,14.207 33.415,14.217 C33.405,14.228 33.395,14.238 33.386,14.249 C33.379,14.256 33.369,14.267 33.359,14.274 C33.349,14.284 33.339,14.292 33.329,14.299 C33.323,14.306 33.313,14.313 33.303,14.320 C33.293,14.327 33.283,14.334 33.277,14.338 C33.267,14.344 33.257,14.351 33.247,14.355 C33.238,14.362 33.231,14.366 33.221,14.373 C33.212,14.377 33.202,14.383 33.192,14.387 C33.185,14.390 33.176,14.394 33.166,14.398 C33.156,14.401 33.145,14.409 33.136,14.412 C33.129,14.412 33.119,14.416 33.109,14.420 L33.080,14.429 C33.073,14.433 33.064,14.433 33.054,14.437 C33.044,14.437 33.035,14.440 33.028,14.440 L33.021,14.444 C33.014,14.444 33.008,14.444 32.998,14.448 C32.992,14.448 32.982,14.448 32.972,14.448 C32.962,14.451 32.952,14.451 32.942,14.451 C32.935,14.451 32.926,14.455 32.916,14.455 C32.906,14.455 32.896,14.455 32.887,14.455 C32.880,14.455 32.870,14.455 32.861,14.455 L31.366,14.455 Z" class="cls-2"/>
    <path d="M29.019,20.925 C29.019,21.059 29.009,21.191 28.997,21.321 C28.986,21.386 28.976,21.446 28.967,21.506 C28.961,21.552 28.950,21.598 28.940,21.644 C28.931,21.683 28.921,21.722 28.911,21.761 C28.904,21.793 28.895,21.825 28.885,21.860 C28.875,21.888 28.865,21.917 28.856,21.949 C28.849,21.973 28.839,22.002 28.829,22.031 C28.820,22.055 28.810,22.080 28.800,22.105 C28.794,22.126 28.784,22.150 28.774,22.172 C28.764,22.193 28.754,22.218 28.748,22.239 C28.738,22.257 28.728,22.278 28.718,22.300 C28.712,22.317 28.702,22.339 28.692,22.356 C28.682,22.374 28.672,22.395 28.662,22.413 C28.655,22.431 28.646,22.449 28.636,22.466 C28.626,22.484 28.617,22.498 28.607,22.516 C28.600,22.529 28.590,22.548 28.581,22.562 C28.571,22.579 28.561,22.594 28.554,22.607 C28.545,22.626 28.535,22.640 28.525,22.654 C28.516,22.668 28.509,22.682 28.499,22.696 C28.489,22.711 28.479,22.724 28.469,22.739 C28.463,22.753 28.453,22.767 28.443,22.778 C28.433,22.792 28.423,22.806 28.413,22.817 C28.407,22.830 28.397,22.841 28.387,22.856 C28.377,22.867 28.368,22.880 28.361,22.891 C28.351,22.902 28.341,22.916 28.332,22.927 C28.325,22.937 28.315,22.947 28.306,22.962 C28.296,22.973 28.286,22.983 28.276,22.994 C28.270,23.005 28.260,23.016 28.250,23.025 C28.240,23.036 28.231,23.047 28.221,23.057 C28.214,23.068 28.204,23.079 28.195,23.090 C28.185,23.096 28.174,23.107 28.168,23.118 C28.159,23.129 28.148,23.139 28.138,23.146 C28.129,23.157 28.122,23.164 28.112,23.174 C28.102,23.185 28.093,23.192 28.083,23.203 C28.076,23.213 28.066,23.220 28.057,23.231 C28.047,23.239 28.037,23.246 28.027,23.256 C28.021,23.263 28.011,23.274 28.001,23.281 C27.991,23.288 27.985,23.298 27.972,23.306 C27.965,23.313 27.956,23.323 27.946,23.330 C27.936,23.337 27.929,23.345 27.920,23.356 C27.910,23.362 27.900,23.369 27.890,23.376 C27.880,23.384 27.874,23.391 27.864,23.397 C27.853,23.405 27.844,23.415 27.834,23.423 C27.824,23.430 27.817,23.436 27.808,23.444 C27.798,23.451 27.788,23.454 27.779,23.462 C27.772,23.469 27.762,23.475 27.752,23.483 C27.743,23.490 27.733,23.497 27.723,23.504 C27.716,23.511 27.707,23.514 27.697,23.522 C27.687,23.529 27.678,23.536 27.667,23.540 C27.661,23.547 27.651,23.553 27.641,23.557 C27.631,23.564 27.625,23.571 27.615,23.579 C27.605,23.582 27.595,23.589 27.585,23.596 C27.575,23.600 27.569,23.607 27.559,23.610 L27.530,23.628 L27.503,23.642 L27.477,23.660 C27.468,23.663 27.458,23.670 27.448,23.674 C27.438,23.681 27.432,23.685 27.422,23.688 C27.412,23.696 27.402,23.699 27.393,23.706 C27.386,23.709 27.376,23.713 27.366,23.720 C27.357,23.724 27.347,23.727 27.336,23.735 C27.330,23.737 27.321,23.741 27.310,23.748 L27.284,23.759 L27.255,23.774 L27.228,23.784 C27.219,23.787 27.209,23.791 27.199,23.798 C27.189,23.802 27.183,23.805 27.173,23.809 C27.163,23.813 27.153,23.815 27.144,23.819 C27.137,23.823 27.127,23.826 27.118,23.830 L27.091,23.841 L27.062,23.851 C27.052,23.854 27.046,23.858 27.036,23.862 C27.026,23.865 27.015,23.869 27.006,23.869 C26.996,23.873 26.989,23.876 26.979,23.880 L26.950,23.887 L26.924,23.897 C26.914,23.901 26.905,23.901 26.898,23.904 C26.885,23.908 26.878,23.908 26.869,23.912 C26.859,23.915 26.849,23.919 26.842,23.919 C26.833,23.922 26.823,23.926 26.813,23.926 L26.787,23.932 L26.757,23.940 C26.747,23.943 26.741,23.943 26.731,23.947 C26.721,23.951 26.711,23.951 26.701,23.954 L26.675,23.958 L26.649,23.964 C26.639,23.964 26.630,23.968 26.620,23.968 C26.610,23.971 26.603,23.971 26.594,23.975 C26.584,23.975 26.574,23.975 26.564,23.979 L26.538,23.982 C26.528,23.982 26.519,23.986 26.508,23.986 C26.498,23.986 26.492,23.990 26.483,23.990 C26.472,23.990 26.462,23.993 26.453,23.993 C26.446,23.993 26.436,23.993 26.426,23.997 L26.397,24.000 C26.390,24.000 26.381,24.000 26.371,24.000 C26.361,24.000 26.351,24.000 26.345,24.003 L26.315,24.003 L26.289,24.007 C26.280,24.007 26.270,24.007 26.260,24.007 C26.253,24.007 26.244,24.007 26.234,24.007 C26.224,24.007 26.214,24.007 26.208,24.007 L21.985,24.007 L21.985,17.133 C22.004,17.150 22.024,17.168 22.044,17.186 C22.054,17.196 22.063,17.204 22.070,17.211 C22.080,17.218 22.090,17.225 22.099,17.235 C22.109,17.243 22.116,17.250 22.125,17.257 C22.135,17.264 22.145,17.271 22.155,17.278 C22.161,17.285 22.171,17.293 22.181,17.299 C22.191,17.306 22.200,17.313 22.207,17.321 L22.236,17.342 C22.246,17.345 22.253,17.352 22.263,17.360 L22.293,17.381 C22.302,17.384 22.308,17.391 22.318,17.399 C22.329,17.406 22.338,17.412 22.348,17.416 L22.374,17.434 C22.384,17.441 22.394,17.449 22.404,17.451 C22.410,17.459 22.420,17.466 22.430,17.469 L22.456,17.488 L22.485,17.501 L22.511,17.519 C22.521,17.523 22.531,17.529 22.541,17.533 C22.547,17.540 22.557,17.544 22.567,17.551 L22.593,17.565 L22.623,17.579 L22.649,17.594 C22.659,17.601 22.669,17.604 22.679,17.607 L22.705,17.622 L22.734,17.636 L22.760,17.650 L22.789,17.661 L22.842,17.689 L22.872,17.700 L22.898,17.714 L22.928,17.724 L22.954,17.735 C22.963,17.739 22.973,17.742 22.983,17.746 L23.009,17.756 C23.019,17.760 23.026,17.767 23.035,17.771 C23.045,17.774 23.055,17.774 23.065,17.781 L23.091,17.789 L23.120,17.799 C23.131,17.802 23.137,17.806 23.146,17.810 C23.157,17.813 23.167,17.817 23.172,17.820 L23.203,17.830 L23.229,17.838 L23.258,17.849 L23.284,17.856 L23.313,17.866 L23.366,17.880 L23.395,17.891 L23.421,17.898 L23.451,17.905 L23.477,17.912 L23.507,17.923 L23.533,17.930 L23.562,17.937 L23.589,17.941 L23.615,17.947 L23.644,17.955 L23.670,17.962 L23.700,17.969 L23.726,17.973 L23.756,17.979 L23.782,17.986 L23.811,17.990 L23.837,17.997 L23.864,18.001 L23.893,18.008 L23.919,18.012 L23.948,18.018 L23.975,18.022 L24.005,18.029 L24.031,18.033 L24.060,18.036 L24.086,18.044 L24.113,18.047 L24.142,18.051 L24.168,18.054 L24.197,18.057 L24.250,18.064 L24.279,18.068 L24.305,18.072 L24.335,18.075 L24.361,18.079 L24.391,18.083 L24.443,18.090 L24.472,18.093 L24.499,18.093 L24.528,18.096 L24.580,18.103 L24.610,18.103 L24.636,18.107 L24.666,18.107 L24.692,18.111 L24.721,18.111 L24.747,18.114 L24.777,18.114 L24.803,18.118 L24.829,18.118 L24.858,18.122 L24.915,18.122 L24.941,18.125 L24.967,18.125 L24.996,18.129 L25.078,18.129 L25.107,18.132 L25.739,18.132 L25.769,18.129 L25.851,18.129 L25.880,18.125 L25.932,18.125 L25.962,18.122 L26.043,18.122 L26.073,18.118 L26.100,18.118 L26.129,18.114 L26.155,18.114 L26.181,18.111 L26.211,18.111 L26.237,18.107 L26.266,18.107 L26.318,18.100 L26.348,18.100 L26.374,18.096 L26.404,18.093 L26.430,18.090 L26.459,18.090 L26.486,18.086 L26.515,18.083 L26.541,18.079 L26.567,18.079 L26.596,18.075 L26.623,18.072 L26.653,18.068 L26.679,18.064 L26.708,18.061 L26.761,18.054 L26.790,18.051 L26.816,18.047 L26.845,18.044 L26.872,18.040 L26.902,18.033 L26.928,18.029 L26.957,18.025 L27.010,18.018 L27.039,18.012 L27.065,18.008 L27.094,18.005 L27.120,17.997 L27.150,17.994 L27.176,17.990 L27.206,17.986 L27.232,17.979 L27.259,17.976 L27.288,17.969 L27.314,17.966 L27.343,17.962 L27.369,17.955 L27.398,17.951 L27.425,17.944 L27.451,17.941 L27.481,17.934 L27.507,17.930 L27.537,17.923 L27.563,17.919 L27.592,17.912 L27.618,17.905 L27.644,17.902 L27.674,17.895 L27.700,17.891 L27.726,17.884 L27.755,17.877 L27.781,17.873 L27.650,17.866 L27.676,17.859 L27.706,17.852 L27.732,17.845 L27.761,17.841 L27.788,17.834 L27.817,17.828 L27.843,17.820 L27.872,17.813 L27.899,17.810 L27.925,17.802 L27.954,17.795 L27.980,17.789 L28.010,17.781 L28.037,17.774 L28.066,17.767 L28.092,17.760 L28.092,16.453 L28.066,16.470 L28.037,16.485 L28.010,16.499 L27.980,16.513 L27.954,16.527 L27.925,16.542 L27.872,16.570 L27.843,16.583 L27.817,16.598 L27.788,16.612 L27.761,16.626 L27.732,16.637 L27.706,16.651 L27.676,16.665 L27.650,16.676 L27.781,16.690 L27.755,16.700 L27.726,16.715 L27.700,16.726 L27.674,16.739 L27.644,16.750 L27.592,16.771 L27.563,16.782 L27.537,16.797 L27.507,16.807 L27.481,16.817 L27.451,16.828 L27.425,16.839 L27.398,16.845 L27.369,16.856 L27.343,16.867 L27.314,16.878 L27.288,16.888 L27.259,16.895 L27.232,16.906 L27.206,16.914 L27.176,16.924 L27.150,16.931 L27.120,16.938 L27.094,16.949 L27.065,16.956 L27.039,16.963 L27.010,16.973 L26.957,16.988 L26.928,16.995 L26.902,17.001 L26.872,17.009 L26.845,17.016 L26.816,17.023 L26.790,17.027 L26.761,17.034 L26.708,17.048 L26.679,17.051 L26.653,17.059 L26.623,17.062 L26.596,17.070 L26.567,17.072 L26.541,17.080 L26.515,17.083 L26.486,17.087 L26.459,17.090 L26.430,17.098 L26.404,17.101 L26.374,17.105 L26.348,17.109 L26.318,17.111 L26.266,17.118 L26.237,17.122 L26.191,17.122 L26.139,17.129 L26.109,17.133 L26.083,17.133 L26.067,17.137 L26.027,17.137 L26.002,17.140 L25.971,17.140 L25.945,17.144 L25.890,17.144 L25.863,17.147 L25.641,17.147 C25.631,17.147 25.624,17.147 25.615,17.144 C25.605,17.144 25.595,17.144 25.585,17.144 L25.559,17.144 L25.533,17.140 L25.504,17.140 L25.477,17.137 C25.468,17.137 25.458,17.137 25.448,17.133 C25.442,17.133 25.432,17.133 25.422,17.133 L25.396,17.129 L25.366,17.126 L25.340,17.122 L25.310,17.118 L25.284,17.111 C25.274,17.111 25.265,17.111 25.258,17.109 C25.248,17.109 25.238,17.105 25.229,17.105 C25.219,17.101 25.209,17.101 25.202,17.101 C25.193,17.098 25.183,17.094 25.173,17.094 C25.164,17.090 25.153,17.090 25.147,17.087 C25.137,17.087 25.127,17.083 25.117,17.083 C25.107,17.080 25.101,17.080 25.091,17.076 C25.081,17.072 25.071,17.072 25.061,17.070 L25.035,17.062 C25.025,17.059 25.016,17.055 25.009,17.055 C24.999,17.051 24.989,17.048 24.980,17.048 C24.970,17.044 24.963,17.041 24.954,17.041 C24.944,17.037 24.934,17.034 24.924,17.030 C24.918,17.027 24.908,17.023 24.898,17.023 C24.888,17.020 24.879,17.016 24.869,17.012 C24.862,17.009 24.852,17.005 24.843,17.001 C24.832,16.998 24.822,16.995 24.816,16.992 C24.806,16.988 24.796,16.984 24.786,16.981 C24.777,16.977 24.770,16.973 24.760,16.970 C24.750,16.966 24.741,16.963 24.731,16.959 C24.724,16.956 24.714,16.953 24.705,16.949 C24.695,16.942 24.685,16.938 24.675,16.934 C24.669,16.931 24.659,16.927 24.649,16.921 C24.639,16.917 24.633,16.914 24.623,16.906 C24.613,16.903 24.604,16.899 24.594,16.892 C24.584,16.888 24.577,16.885 24.568,16.878 C24.558,16.875 24.548,16.867 24.538,16.864 C24.528,16.860 24.522,16.853 24.512,16.849 C24.501,16.843 24.492,16.836 24.482,16.832 C24.476,16.825 24.465,16.821 24.456,16.814 C24.446,16.810 24.439,16.804 24.429,16.797 C24.420,16.789 24.410,16.786 24.400,16.778 C24.391,16.771 24.384,16.765 24.374,16.761 C24.364,16.754 24.355,16.747 24.345,16.739 C24.338,16.732 24.328,16.726 24.319,16.719 L24.289,16.697 C24.283,16.690 24.273,16.683 24.263,16.672 C24.253,16.665 24.243,16.658 24.237,16.651 C24.227,16.641 24.217,16.633 24.207,16.626 C24.197,16.616 24.191,16.609 24.181,16.598 C24.171,16.591 24.161,16.581 24.151,16.573 C24.145,16.563 24.135,16.552 24.125,16.544 C24.116,16.534 24.106,16.524 24.099,16.513 C24.089,16.503 24.080,16.492 24.070,16.481 C24.060,16.470 24.053,16.460 24.044,16.449 C24.034,16.438 24.024,16.428 24.017,16.414 C24.008,16.403 23.998,16.392 23.988,16.378 C23.978,16.364 23.972,16.354 23.962,16.339 C23.952,16.325 23.942,16.315 23.932,16.300 C23.922,16.286 23.916,16.272 23.906,16.258 C23.896,16.241 23.886,16.226 23.876,16.208 C23.867,16.194 23.860,16.176 23.850,16.159 C23.840,16.141 23.831,16.124 23.821,16.105 C23.811,16.088 23.804,16.067 23.795,16.049 C23.785,16.027 23.775,16.007 23.766,15.985 C23.756,15.960 23.749,15.939 23.739,15.914 C23.730,15.886 23.720,15.862 23.713,15.836 C23.703,15.804 23.694,15.776 23.684,15.745 C23.674,15.709 23.663,15.674 23.658,15.635 C23.644,15.589 23.637,15.542 23.627,15.492 C23.618,15.422 23.608,15.351 23.601,15.277 C23.591,15.188 23.589,15.100 23.589,15.007 C23.589,14.918 23.591,14.827 23.601,14.741 C23.608,14.667 23.615,14.593 23.627,14.522 C23.637,14.476 23.644,14.430 23.658,14.384 C23.663,14.345 23.674,14.310 23.684,14.274 C23.694,14.242 23.703,14.214 23.713,14.182 C23.720,14.157 23.730,14.128 23.739,14.104 C23.749,14.079 23.756,14.058 23.766,14.033 C23.775,14.011 23.785,13.991 23.795,13.970 C23.801,13.948 23.811,13.931 23.821,13.909 C23.831,13.892 23.840,13.874 23.850,13.856 C23.857,13.842 23.867,13.824 23.876,13.806 C23.886,13.792 23.896,13.778 23.906,13.760 C23.912,13.747 23.922,13.732 23.932,13.718 C23.942,13.704 23.952,13.689 23.962,13.675 C23.969,13.665 23.978,13.650 23.988,13.636 C23.998,13.626 24.008,13.612 24.017,13.601 C24.024,13.591 24.034,13.580 24.044,13.565 C24.053,13.555 24.060,13.544 24.070,13.533 C24.080,13.523 24.089,13.513 24.099,13.502 C24.106,13.491 24.116,13.484 24.125,13.474 C24.135,13.463 24.145,13.456 24.151,13.445 C24.161,13.435 24.171,13.427 24.181,13.417 C24.191,13.407 24.197,13.399 24.207,13.392 C24.217,13.381 24.227,13.374 24.237,13.368 C24.243,13.360 24.253,13.349 24.263,13.342 C24.273,13.335 24.283,13.329 24.289,13.318 C24.299,13.310 24.309,13.303 24.319,13.296 C24.328,13.290 24.338,13.282 24.345,13.275 C24.355,13.271 24.364,13.264 24.374,13.257 C24.384,13.251 24.391,13.243 24.400,13.236 C24.410,13.232 24.420,13.225 24.429,13.218 C24.439,13.212 24.446,13.208 24.456,13.201 C24.465,13.193 24.476,13.190 24.482,13.183 C24.492,13.180 24.501,13.173 24.512,13.165 C24.522,13.162 24.528,13.158 24.538,13.151 C24.548,13.147 24.558,13.141 24.568,13.137 C24.577,13.130 24.584,13.126 24.594,13.123 C24.604,13.115 24.613,13.112 24.623,13.108 C24.630,13.102 24.639,13.098 24.649,13.095 C24.659,13.091 24.669,13.084 24.675,13.080 C24.685,13.076 24.695,13.073 24.705,13.066 C24.714,13.063 24.721,13.059 24.731,13.056 C24.741,13.052 24.750,13.048 24.760,13.045 C24.770,13.041 24.777,13.037 24.786,13.034 C24.796,13.030 24.806,13.027 24.816,13.024 C24.822,13.020 24.832,13.017 24.843,13.013 C24.852,13.009 24.862,13.006 24.869,13.002 C24.879,12.998 24.888,12.995 24.898,12.991 C24.905,12.991 24.915,12.988 24.924,12.985 L24.954,12.974 C24.960,12.974 24.970,12.970 24.980,12.967 C24.989,12.963 24.999,12.963 25.009,12.959 C25.016,12.956 25.025,12.953 25.035,12.953 L25.061,12.946 C25.071,12.942 25.081,12.942 25.091,12.939 C25.101,12.935 25.107,12.935 25.117,12.931 C25.127,12.931 25.137,12.928 25.147,12.924 C25.153,12.924 25.164,12.920 25.173,12.920 C25.183,12.917 25.193,12.917 25.202,12.914 C25.209,12.914 25.219,12.910 25.229,12.910 C25.238,12.907 25.248,12.907 25.258,12.907 L25.284,12.900 L25.310,12.896 L25.340,12.892 L25.366,12.889 L25.396,12.885 L25.422,12.881 C25.432,12.881 25.442,12.881 25.448,12.878 C25.458,12.878 25.468,12.878 25.477,12.878 L25.504,12.875 L25.533,12.875 L25.559,12.871 L25.585,12.871 C25.595,12.871 25.605,12.871 25.615,12.868 C25.624,12.868 25.631,12.868 25.641,12.868 L25.890,12.868 L25.919,12.871 L25.975,12.871 L26.002,12.875 L26.031,12.875 L26.057,12.878 L26.083,12.878 L26.112,12.881 L26.139,12.885 L26.168,12.885 L26.220,12.892 L26.250,12.896 L26.302,12.903 L26.332,12.907 L26.358,12.910 L26.387,12.914 L26.414,12.917 L26.443,12.920 L26.469,12.928 L26.498,12.931 L26.524,12.935 L26.551,12.942 L26.581,12.946 L26.607,12.953 L26.636,12.956 L26.663,12.963 L26.692,12.967 L26.744,12.981 L26.773,12.985 L26.800,12.991 L26.829,12.998 L26.855,13.006 L26.885,13.013 L26.911,13.020 L26.941,13.027 L26.993,13.041 L27.022,13.048 L27.049,13.059 L27.078,13.066 L27.104,13.073 L27.134,13.084 L27.160,13.091 L27.189,13.102 L27.216,13.108 L27.242,13.119 L27.271,13.130 L27.297,13.137 L27.327,13.147 L27.353,13.158 L27.383,13.165 L27.434,13.186 L27.465,13.197 L27.491,13.208 L27.520,13.218 L27.546,13.232 L27.575,13.243 L27.628,13.264 L27.657,13.279 L27.683,13.290 L27.713,13.303 L27.740,13.314 L27.769,13.329 L27.795,13.339 L27.663,13.353 L27.690,13.368 L27.716,13.377 L27.745,13.392 L27.771,13.407 L27.800,13.420 L27.827,13.435 L27.856,13.448 L27.882,13.463 L27.912,13.477 L27.964,13.505 L27.994,13.520 L28.020,13.537 L28.049,13.552 L28.075,13.565 L28.075,12.258 L28.049,12.251 L28.020,12.244 L27.994,12.237 L27.964,12.230 L27.912,12.216 L27.882,12.212 L27.856,12.205 L27.827,12.198 L27.800,12.191 L27.761,12.177 L27.735,12.170 L27.706,12.162 L27.680,12.156 L27.650,12.152 L27.785,12.145 L27.755,12.138 L27.729,12.131 L27.703,12.127 L27.674,12.121 L27.647,12.117 L27.618,12.110 L27.566,12.095 L27.537,12.092 L27.510,12.084 L27.481,12.082 L27.455,12.074 L27.425,12.071 L27.398,12.063 L27.372,12.060 L27.343,12.053 L27.317,12.049 L27.288,12.043 L27.261,12.039 L27.232,12.035 L27.206,12.028 L27.180,12.024 L27.150,12.021 L27.124,12.014 L27.094,12.010 L27.068,12.007 L27.039,12.004 L27.013,12.000 L26.983,11.993 L26.931,11.985 L26.902,11.978 L26.875,11.975 L26.845,11.971 L26.819,11.968 L26.790,11.965 L26.764,11.961 L26.734,11.957 L26.682,11.950 L26.653,11.946 L26.627,11.943 L26.596,11.939 L26.571,11.936 L26.541,11.933 L26.515,11.933 L26.489,11.929 L26.466,11.922 L26.440,11.918 L26.410,11.915 L26.384,11.915 L26.358,11.911 L26.328,11.907 L26.302,11.904 L26.273,11.904 L26.246,11.900 L26.220,11.900 L26.191,11.896 L26.165,11.894 L26.136,11.894 L26.109,11.890 L26.083,11.890 L26.053,11.887 L26.027,11.887 L26.002,11.883 L25.945,11.883 L25.919,11.879 L25.890,11.879 L25.863,11.876 L25.726,11.876 L25.696,11.872 L25.645,11.872 L25.615,11.868 L25.202,11.868 L25.176,11.872 L25.039,11.872 L25.009,11.876 L24.927,11.876 L24.898,11.879 L24.872,11.879 L24.846,11.883 L24.790,11.883 L24.760,11.887 L24.734,11.887 L24.705,11.890 L24.678,11.890 L24.652,11.894 L24.623,11.894 L24.597,11.896 L24.568,11.900 L24.541,11.900 L24.512,11.904 L24.460,11.911 L24.429,11.911 L24.403,11.915 L24.374,11.918 L24.322,11.926 L24.292,11.929 L24.266,11.933 L24.237,11.936 L24.185,11.943 L24.155,11.946 L24.132,11.957 L24.106,11.961 L24.077,11.965 L24.050,11.971 L24.024,11.975 L23.994,11.978 L23.969,11.985 L23.939,11.989 L23.912,11.996 L23.883,12.000 L23.857,12.004 L23.828,12.010 L23.801,12.017 L23.772,12.021 L23.720,12.035 L23.690,12.039 L23.663,12.046 L23.634,12.053 L23.608,12.060 L23.579,12.067 L23.526,12.082 L23.497,12.088 L23.418,12.110 L23.392,12.121 L23.363,12.127 L23.337,12.134 L23.307,12.145 L23.281,12.152 L23.251,12.162 L23.225,12.170 L23.196,12.180 L23.170,12.188 C23.160,12.191 23.153,12.195 23.143,12.198 L23.114,12.208 C23.104,12.212 23.098,12.216 23.088,12.219 L23.058,12.230 L23.032,12.240 C23.022,12.244 23.012,12.247 23.002,12.251 C22.996,12.255 22.986,12.258 22.976,12.262 L22.950,12.273 C22.940,12.276 22.930,12.279 22.921,12.283 L22.894,12.297 L22.865,12.308 L22.839,12.318 L22.810,12.333 L22.784,12.344 L22.757,12.357 L22.727,12.372 L22.675,12.400 C22.665,12.403 22.655,12.407 22.646,12.411 L22.619,12.428 L22.590,12.442 L22.564,12.457 C22.554,12.463 22.544,12.467 22.535,12.471 C22.525,12.478 22.518,12.485 22.509,12.489 L22.479,12.506 L22.453,12.520 C22.443,12.528 22.433,12.531 22.427,12.538 C22.417,12.541 22.406,12.549 22.397,12.556 C22.387,12.559 22.380,12.567 22.370,12.574 C22.361,12.577 22.351,12.584 22.341,12.591 C22.332,12.595 22.325,12.602 22.315,12.609 C22.305,12.613 22.296,12.619 22.286,12.627 L22.260,12.648 C22.250,12.651 22.240,12.658 22.230,12.666 L22.204,12.687 C22.194,12.694 22.184,12.701 22.178,12.708 C22.168,12.715 22.158,12.723 22.148,12.729 C22.138,12.736 22.132,12.744 22.122,12.751 C22.112,12.758 22.102,12.764 22.092,12.772 C22.083,12.783 22.076,12.790 22.066,12.797 C22.056,12.803 22.047,12.814 22.040,12.822 C22.018,12.840 21.998,12.857 21.982,12.875 L21.982,9.086 C21.982,8.870 22.001,8.661 22.040,8.459 C22.047,8.413 22.056,8.370 22.066,8.328 C22.076,8.292 22.083,8.257 22.092,8.218 C22.102,8.186 22.112,8.154 22.122,8.123 C22.128,8.094 22.138,8.065 22.148,8.037 C22.158,8.009 22.168,7.985 22.178,7.959 C22.184,7.935 22.194,7.910 22.204,7.885 C22.214,7.861 22.220,7.839 22.230,7.818 C22.240,7.793 22.250,7.775 22.260,7.754 C22.269,7.733 22.276,7.712 22.286,7.694 C22.296,7.673 22.305,7.655 22.315,7.634 C22.325,7.616 22.332,7.598 22.341,7.580 C22.351,7.563 22.361,7.545 22.370,7.528 C22.380,7.513 22.387,7.496 22.397,7.478 C22.406,7.463 22.417,7.446 22.427,7.432 C22.433,7.414 22.443,7.400 22.453,7.385 C22.463,7.368 22.469,7.354 22.479,7.340 C22.489,7.325 22.499,7.311 22.509,7.297 C22.515,7.283 22.525,7.269 22.535,7.258 C22.544,7.244 22.554,7.230 22.564,7.216 C22.571,7.201 22.580,7.191 22.590,7.177 C22.600,7.166 22.607,7.152 22.619,7.141 C22.626,7.127 22.636,7.117 22.646,7.106 C22.655,7.091 22.662,7.081 22.675,7.071 C22.682,7.056 22.691,7.045 22.701,7.035 C22.711,7.024 22.718,7.013 22.727,7.003 C22.737,6.993 22.748,6.982 22.757,6.971 C22.767,6.961 22.774,6.950 22.784,6.939 C22.793,6.929 22.803,6.918 22.810,6.907 L22.839,6.879 L22.865,6.851 C22.875,6.840 22.885,6.833 22.894,6.822 C22.904,6.812 22.911,6.805 22.921,6.794 C22.930,6.787 22.940,6.777 22.950,6.766 C22.960,6.759 22.966,6.751 22.976,6.741 C22.986,6.734 22.996,6.723 23.002,6.716 C23.012,6.709 23.022,6.699 23.032,6.691 C23.042,6.684 23.048,6.673 23.058,6.666 C23.068,6.660 23.078,6.652 23.088,6.642 C23.098,6.634 23.104,6.628 23.114,6.621 C23.124,6.614 23.134,6.606 23.143,6.599 C23.150,6.592 23.160,6.585 23.170,6.578 C23.179,6.571 23.189,6.564 23.196,6.556 C23.206,6.550 23.215,6.543 23.225,6.535 C23.235,6.528 23.244,6.521 23.251,6.515 C23.261,6.507 23.271,6.504 23.281,6.496 C23.291,6.489 23.297,6.482 23.307,6.476 C23.317,6.472 23.327,6.465 23.337,6.457 C23.347,6.450 23.353,6.447 23.363,6.439 C23.373,6.433 23.382,6.429 23.392,6.422 C23.399,6.415 23.409,6.411 23.418,6.404 C23.428,6.398 23.438,6.394 23.445,6.390 C23.454,6.383 23.464,6.376 23.474,6.372 C23.484,6.365 23.490,6.362 23.500,6.359 C23.510,6.351 23.520,6.348 23.529,6.341 L23.556,6.326 L23.586,6.312 C23.591,6.305 23.601,6.302 23.612,6.298 C23.622,6.291 23.631,6.288 23.641,6.281 C23.648,6.277 23.658,6.273 23.667,6.270 C23.677,6.263 23.687,6.259 23.694,6.255 C23.703,6.252 23.713,6.245 23.723,6.242 C23.732,6.238 23.739,6.234 23.749,6.231 L23.778,6.216 C23.785,6.213 23.795,6.210 23.804,6.206 C23.814,6.203 23.824,6.199 23.834,6.195 C23.840,6.192 23.850,6.185 23.860,6.185 C23.870,6.181 23.880,6.177 23.886,6.175 C23.896,6.171 23.906,6.167 23.916,6.160 C23.926,6.160 23.936,6.156 23.942,6.153 L23.972,6.142 C23.981,6.138 23.991,6.136 23.998,6.132 C24.008,6.128 24.017,6.125 24.027,6.125 C24.037,6.121 24.044,6.117 24.053,6.114 C24.063,6.110 24.073,6.110 24.082,6.107 L24.109,6.097 C24.118,6.097 24.129,6.093 24.135,6.089 C24.145,6.089 24.155,6.086 24.165,6.082 C24.175,6.082 24.181,6.078 24.191,6.075 C24.201,6.075 24.211,6.071 24.220,6.068 L24.247,6.064 C24.256,6.061 24.263,6.058 24.273,6.058 C24.283,6.054 24.292,6.054 24.302,6.050 C24.312,6.050 24.319,6.047 24.328,6.047 L24.358,6.039 L24.384,6.036 C24.394,6.032 24.403,6.032 24.413,6.029 C24.420,6.029 24.429,6.029 24.439,6.025 C24.450,6.025 24.456,6.025 24.465,6.022 L24.496,6.019 L24.522,6.015 C24.532,6.015 24.541,6.015 24.551,6.011 C24.558,6.011 24.568,6.011 24.577,6.011 L24.606,6.008 C24.613,6.008 24.623,6.004 24.633,6.004 C24.642,6.004 24.649,6.004 24.659,6.004 C24.669,6.004 24.678,6.000 24.688,6.000 C24.698,6.000 24.705,6.000 24.714,6.000 L24.745,6.000 C24.750,6.000 24.760,5.997 24.770,5.997 L29.019,5.997 L29.019,20.925 Z" class="cls-3"/>
    <path d="M21.021,20.925 C21.021,21.059 21.014,21.191 20.998,21.321 C20.991,21.386 20.981,21.446 20.968,21.506 C20.962,21.552 20.952,21.598 20.942,21.644 C20.933,21.683 20.926,21.722 20.913,21.761 C20.906,21.793 20.897,21.828 20.887,21.860 C20.877,21.888 20.870,21.921 20.861,21.949 C20.851,21.977 20.841,22.002 20.831,22.031 C20.825,22.055 20.815,22.080 20.805,22.105 C20.795,22.126 20.786,22.150 20.776,22.176 C20.769,22.197 20.759,22.218 20.750,22.239 C20.740,22.261 20.730,22.278 20.724,22.300 C20.714,22.317 20.704,22.339 20.694,22.356 C20.684,22.377 20.678,22.395 20.668,22.413 C20.658,22.431 20.649,22.449 20.638,22.466 C20.632,22.484 20.622,22.498 20.613,22.516 C20.603,22.533 20.592,22.548 20.586,22.566 C20.577,22.579 20.567,22.594 20.557,22.611 C20.547,22.626 20.537,22.640 20.531,22.654 C20.521,22.668 20.511,22.682 20.501,22.696 C20.491,22.711 20.485,22.724 20.475,22.739 C20.465,22.753 20.455,22.767 20.446,22.781 C20.436,22.792 20.429,22.806 20.419,22.817 C20.410,22.830 20.400,22.845 20.393,22.856 C20.383,22.870 20.374,22.880 20.364,22.891 C20.354,22.906 20.347,22.916 20.338,22.927 C20.328,22.941 20.318,22.951 20.308,22.962 C20.299,22.973 20.292,22.983 20.282,22.997 C20.272,23.008 20.263,23.019 20.253,23.029 C20.246,23.040 20.237,23.051 20.227,23.057 C20.217,23.068 20.207,23.079 20.198,23.090 L20.171,23.118 C20.162,23.129 20.152,23.139 20.145,23.150 C20.135,23.157 20.126,23.168 20.116,23.178 C20.106,23.185 20.099,23.196 20.090,23.207 C20.080,23.213 20.070,23.220 20.061,23.231 C20.054,23.242 20.044,23.249 20.034,23.259 C20.025,23.267 20.015,23.274 20.008,23.284 C19.998,23.291 19.989,23.298 19.979,23.309 C19.969,23.317 19.962,23.323 19.953,23.334 C19.943,23.341 19.933,23.348 19.923,23.356 C19.917,23.362 19.907,23.373 19.897,23.380 C19.887,23.387 19.877,23.395 19.867,23.401 C19.861,23.408 19.852,23.415 19.842,23.423 C19.831,23.430 19.821,23.436 19.816,23.444 C19.806,23.451 19.795,23.458 19.785,23.465 C19.776,23.473 19.770,23.479 19.760,23.486 L19.730,23.504 C19.724,23.511 19.714,23.518 19.704,23.525 C19.694,23.529 19.684,23.536 19.675,23.543 C19.668,23.550 19.658,23.553 19.648,23.561 C19.639,23.568 19.629,23.575 19.622,23.579 C19.612,23.586 19.603,23.592 19.593,23.596 C19.583,23.603 19.574,23.607 19.567,23.614 C19.557,23.618 19.547,23.624 19.538,23.628 C19.531,23.635 19.521,23.642 19.511,23.646 L19.482,23.660 C19.475,23.667 19.466,23.670 19.456,23.678 C19.446,23.681 19.436,23.685 19.427,23.692 C19.420,23.696 19.410,23.702 19.401,23.706 C19.391,23.709 19.381,23.717 19.374,23.720 C19.365,23.724 19.355,23.731 19.345,23.735 C19.335,23.737 19.329,23.741 19.319,23.748 L19.290,23.759 L19.263,23.774 C19.254,23.776 19.244,23.780 19.234,23.784 C19.227,23.791 19.218,23.795 19.208,23.798 C19.198,23.802 19.192,23.805 19.178,23.809 C19.172,23.813 19.162,23.815 19.152,23.819 C19.142,23.823 19.136,23.826 19.122,23.830 L19.070,23.851 C19.060,23.854 19.051,23.858 19.041,23.862 C19.031,23.865 19.024,23.869 19.015,23.873 C19.005,23.876 18.995,23.876 18.985,23.880 L18.959,23.890 L18.930,23.897 C18.923,23.901 18.913,23.901 18.904,23.904 C18.894,23.908 18.884,23.912 18.875,23.912 C18.868,23.915 18.858,23.919 18.848,23.919 C18.839,23.922 18.832,23.926 18.822,23.929 L18.793,23.936 L18.767,23.940 C18.757,23.943 18.747,23.947 18.738,23.947 C18.728,23.951 18.721,23.951 18.711,23.954 C18.702,23.958 18.692,23.958 18.682,23.961 L18.656,23.964 C18.646,23.964 18.636,23.968 18.626,23.968 C18.620,23.971 18.610,23.971 18.600,23.975 C18.590,23.975 18.584,23.975 18.574,23.979 L18.544,23.982 C18.534,23.986 18.529,23.986 18.519,23.986 C18.508,23.990 18.498,23.990 18.489,23.990 C18.483,23.993 18.473,23.993 18.462,23.993 C18.453,23.993 18.443,23.997 18.433,23.997 L18.407,24.000 C18.397,24.000 18.391,24.000 18.381,24.000 C18.371,24.003 18.361,24.003 18.352,24.003 L18.325,24.003 L18.299,24.007 C18.289,24.007 18.280,24.007 18.270,24.007 C18.260,24.007 18.253,24.007 18.244,24.007 C18.234,24.007 18.224,24.007 18.215,24.007 L14.003,24.007 L14.003,17.756 C14.003,17.756 14.024,17.763 14.063,17.774 L14.089,17.781 L14.118,17.789 L14.144,17.795 L14.174,17.802 L14.226,17.817 L14.255,17.824 L14.281,17.830 L14.311,17.834 L14.363,17.849 L14.392,17.856 L14.418,17.859 L14.448,17.866 L14.474,17.873 L14.504,17.880 L14.529,17.884 L14.556,17.891 L14.585,17.898 L14.611,17.902 L14.641,17.908 L14.667,17.912 L14.696,17.919 L14.723,17.923 L14.752,17.930 L14.778,17.934 L14.807,17.937 L14.834,17.944 L14.860,17.947 L14.889,17.955 L14.915,17.958 L14.944,17.962 L14.971,17.969 L15.000,17.973 L15.026,17.976 L15.055,17.983 L15.108,17.990 L15.137,17.994 L15.163,17.997 L15.193,18.001 L15.219,18.008 L15.249,18.012 L15.275,18.015 L15.304,18.018 L15.357,18.025 L15.386,18.029 L15.412,18.033 L15.441,18.036 L15.467,18.040 L15.497,18.044 L15.523,18.047 L15.552,18.051 L15.604,18.057 L15.634,18.061 L15.660,18.061 L15.689,18.068 L15.715,18.068 L15.745,18.072 L15.797,18.079 L15.827,18.079 L15.852,18.083 L15.882,18.086 L15.908,18.086 L15.938,18.090 L15.964,18.093 L15.993,18.093 L16.046,18.100 L16.075,18.100 L16.101,18.103 L16.130,18.103 L16.157,18.107 L16.186,18.107 L16.212,18.111 L16.241,18.111 L16.267,18.114 L16.323,18.114 L16.349,18.118 L16.466,18.118 L16.492,18.122 L16.578,18.122 L16.604,18.125 L16.686,18.125 L16.715,18.129 L16.941,18.129 L16.970,18.125 L17.052,18.125 L17.078,18.122 L17.134,18.122 L17.163,18.118 L17.218,18.118 L17.245,18.114 L17.271,18.114 L17.300,18.111 L17.326,18.111 L17.356,18.107 L17.382,18.107 L17.412,18.103 L17.437,18.103 L17.467,18.100 L17.494,18.096 L17.523,18.093 L17.549,18.093 L17.575,18.090 L17.604,18.086 L17.631,18.083 L17.660,18.079 L17.712,18.072 L17.741,18.068 L17.768,18.064 L17.797,18.061 L17.823,18.057 L17.852,18.054 C17.859,18.054 17.869,18.051 17.878,18.051 L17.908,18.044 L17.960,18.036 C17.970,18.033 17.980,18.033 17.989,18.029 L18.015,18.025 C18.025,18.025 18.035,18.022 18.045,18.022 C18.055,18.018 18.061,18.018 18.071,18.015 L18.101,18.012 L18.153,17.997 C18.163,17.997 18.173,17.994 18.183,17.990 L18.209,17.986 L18.238,17.979 C18.244,17.979 18.255,17.976 18.264,17.973 L18.291,17.966 L18.320,17.962 C18.330,17.958 18.336,17.955 18.346,17.955 L18.375,17.947 C18.382,17.944 18.392,17.941 18.401,17.937 C18.411,17.937 18.421,17.934 18.431,17.930 L18.457,17.923 C18.467,17.919 18.473,17.916 18.486,17.912 C18.493,17.912 18.503,17.908 18.512,17.905 L18.539,17.898 C18.548,17.895 18.558,17.891 18.568,17.888 L18.594,17.880 L18.623,17.869 C18.630,17.866 18.640,17.866 18.649,17.863 L18.679,17.852 L18.705,17.841 C18.714,17.838 18.725,17.834 18.735,17.830 C18.741,17.828 18.750,17.824 18.760,17.820 L18.790,17.810 C18.796,17.806 18.806,17.802 18.817,17.799 C18.826,17.795 18.832,17.789 18.842,17.785 C18.852,17.781 18.862,17.778 18.872,17.774 L18.898,17.763 L18.927,17.750 C18.934,17.746 18.944,17.742 18.954,17.739 C18.963,17.735 18.841,17.728 18.851,17.724 L18.903,17.696 C18.913,17.693 18.923,17.685 18.932,17.682 C18.942,17.678 18.952,17.672 18.959,17.668 C18.968,17.664 18.978,17.657 18.988,17.654 C18.998,17.646 19.004,17.643 19.014,17.636 C19.024,17.633 19.034,17.625 19.043,17.622 C19.053,17.618 19.060,17.611 19.069,17.604 C19.079,17.601 19.089,17.594 19.096,17.590 C19.108,17.583 19.115,17.576 19.125,17.572 C19.135,17.565 19.144,17.562 19.151,17.555 C19.161,17.547 19.171,17.540 19.180,17.537 C19.190,17.529 19.200,17.523 19.207,17.516 C19.216,17.512 19.226,17.505 19.236,17.498 C19.246,17.490 19.252,17.484 19.262,17.477 C19.272,17.473 19.282,17.466 19.292,17.455 C19.298,17.451 19.308,17.441 19.318,17.438 C19.328,17.427 19.338,17.420 19.344,17.412 C19.354,17.406 19.364,17.399 19.374,17.391 C19.383,17.384 19.389,17.374 19.400,17.367 C19.410,17.360 19.419,17.349 19.429,17.342 C19.439,17.335 19.446,17.324 19.455,17.317 C19.465,17.306 19.475,17.299 19.485,17.289 C19.491,17.282 19.501,17.271 19.511,17.261 C19.521,17.254 19.530,17.243 19.537,17.232 C19.547,17.222 19.556,17.211 19.566,17.204 C19.576,17.193 19.583,17.183 19.592,17.172 C19.602,17.161 19.612,17.150 19.622,17.140 C19.631,17.126 19.641,17.115 19.648,17.105 C19.658,17.090 19.667,17.080 19.677,17.070 C19.687,17.055 19.694,17.044 19.703,17.030 C19.713,17.016 19.723,17.001 19.730,16.992 C19.739,16.977 19.749,16.963 19.759,16.949 C19.768,16.934 19.778,16.917 19.785,16.903 C19.795,16.888 19.804,16.871 19.814,16.856 C19.821,16.839 19.831,16.821 19.840,16.804 C19.850,16.786 19.860,16.768 19.867,16.750 C19.876,16.729 19.886,16.711 19.896,16.690 C19.905,16.669 19.915,16.648 19.922,16.626 C19.932,16.602 19.941,16.577 19.951,16.555 C19.961,16.527 19.972,16.503 19.977,16.474 C19.987,16.446 19.997,16.414 20.007,16.382 C20.017,16.347 20.027,16.308 20.033,16.272 C20.043,16.226 20.053,16.180 20.063,16.134 C20.073,16.063 20.082,15.992 20.089,15.921 C20.099,15.819 20.102,15.715 20.102,15.613 L20.102,11.985 L17.754,11.985 L17.754,15.613 C17.754,15.670 17.751,15.723 17.748,15.780 C17.741,15.847 17.735,15.914 17.718,15.981 C17.712,16.020 17.703,16.059 17.693,16.098 C17.686,16.130 17.676,16.159 17.667,16.191 C17.657,16.215 17.647,16.241 17.637,16.265 C17.631,16.286 17.621,16.308 17.611,16.329 C17.601,16.350 17.591,16.368 17.581,16.389 C17.575,16.407 17.565,16.421 17.555,16.438 C17.545,16.456 17.539,16.470 17.529,16.488 C17.519,16.503 17.509,16.516 17.499,16.531 C17.490,16.544 17.483,16.559 17.473,16.570 C17.463,16.581 17.454,16.594 17.444,16.605 C17.437,16.619 17.427,16.630 17.418,16.641 C17.408,16.651 17.398,16.661 17.388,16.672 C17.382,16.683 17.372,16.694 17.362,16.704 C17.353,16.715 17.343,16.722 17.333,16.732 C17.326,16.739 17.317,16.750 17.307,16.758 C17.297,16.768 17.287,16.775 17.278,16.782 C17.271,16.793 17.261,16.800 17.251,16.807 C17.242,16.814 17.235,16.821 17.225,16.828 C17.215,16.836 17.206,16.843 17.196,16.849 C17.186,16.856 17.179,16.864 17.170,16.871 C17.160,16.878 17.150,16.885 17.144,16.888 C17.134,16.895 17.124,16.903 17.114,16.906 C17.105,16.914 17.098,16.921 17.088,16.924 C17.078,16.931 17.069,16.934 17.059,16.942 C17.049,16.945 17.042,16.953 17.033,16.956 C17.023,16.959 17.013,16.966 17.003,16.970 C16.993,16.973 16.987,16.981 16.977,16.984 C16.968,16.988 16.957,16.992 16.951,16.998 C16.941,17.001 16.932,17.005 16.922,17.009 C16.911,17.012 16.901,17.016 16.896,17.020 C16.886,17.023 16.876,17.027 16.866,17.030 C16.856,17.034 16.850,17.037 16.840,17.041 C16.830,17.044 16.820,17.048 16.810,17.051 C16.800,17.055 16.794,17.059 16.784,17.062 C16.774,17.062 16.764,17.066 16.755,17.070 C16.745,17.072 16.738,17.072 16.728,17.076 C16.719,17.080 16.709,17.083 16.702,17.083 C16.692,17.087 16.683,17.090 16.673,17.090 C16.663,17.094 16.657,17.094 16.647,17.098 C16.637,17.101 16.627,17.101 16.618,17.105 C16.608,17.105 16.601,17.109 16.591,17.109 C16.582,17.111 16.572,17.111 16.562,17.115 L16.536,17.118 C16.526,17.118 16.517,17.122 16.510,17.122 C16.500,17.122 16.813,17.126 16.804,17.126 L16.777,17.129 C16.768,17.129 16.757,17.129 16.747,17.133 C16.741,17.133 16.732,17.133 16.722,17.133 C16.712,17.133 16.701,17.137 16.692,17.137 C16.686,17.137 16.676,17.137 16.666,17.137 C16.656,17.137 16.646,17.137 16.636,17.140 C16.630,17.140 16.620,17.140 16.610,17.140 L16.330,17.140 L16.303,17.137 L16.248,17.137 L16.219,17.133 L16.193,17.133 L16.163,17.129 L16.137,17.129 L16.108,17.126 L16.082,17.122 L16.052,17.122 L16.000,17.115 L15.970,17.111 L15.944,17.109 L15.915,17.105 L15.888,17.101 L15.859,17.098 L15.833,17.094 L15.816,17.094 L15.787,17.090 L15.761,17.083 L15.735,17.080 L15.706,17.072 L15.679,17.070 L15.650,17.062 L15.624,17.059 L15.595,17.051 L15.568,17.048 L15.542,17.041 L15.513,17.034 L15.487,17.027 L15.458,17.023 L15.431,17.016 L15.402,17.009 L15.376,17.001 L15.347,16.995 L15.321,16.984 L15.294,16.977 L15.265,16.970 L15.239,16.963 L15.209,16.956 L15.183,16.945 L15.153,16.938 L15.127,16.931 L15.098,16.921 L15.072,16.914 L15.045,16.903 L15.016,16.895 L14.990,16.885 L14.961,16.878 L14.935,16.867 L14.905,16.856 L14.879,16.845 L14.850,16.836 L14.824,16.828 L14.798,16.817 L14.768,16.807 L14.742,16.797 L14.713,16.786 L14.687,16.771 L14.657,16.761 L14.631,16.750 L14.601,16.739 L14.575,16.729 L14.546,16.715 L14.520,16.704 L14.494,16.690 L14.464,16.680 L14.438,16.665 L14.409,16.655 L14.383,16.641 L14.353,16.630 L14.301,16.602 L14.272,16.591 L14.245,16.577 L14.216,16.563 L14.190,16.548 L14.161,16.538 L14.144,16.527 L14.118,16.513 L14.089,16.499 L14.063,16.485 C14.043,16.474 14.024,16.464 14.003,16.453 L14.003,9.083 C14.003,8.870 14.024,8.661 14.063,8.455 C14.069,8.413 14.079,8.370 14.089,8.328 C14.099,8.289 14.108,8.253 14.118,8.218 C14.125,8.186 14.135,8.154 14.144,8.123 C14.154,8.094 14.161,8.063 14.174,8.034 C14.180,8.009 14.190,7.981 14.200,7.956 C14.209,7.931 14.216,7.907 14.226,7.881 C14.236,7.861 14.245,7.836 14.255,7.814 C14.265,7.793 14.272,7.772 14.281,7.751 C14.291,7.729 14.301,7.712 14.311,7.690 C14.317,7.673 14.327,7.651 14.337,7.634 C14.347,7.616 14.356,7.598 14.363,7.580 C14.373,7.563 14.383,7.545 14.392,7.528 C14.402,7.510 14.409,7.496 14.418,7.478 C14.428,7.460 14.438,7.446 14.448,7.428 C14.458,7.414 14.464,7.400 14.474,7.385 C14.484,7.368 14.494,7.354 14.504,7.340 C14.514,7.325 14.520,7.311 14.529,7.297 C14.539,7.283 14.550,7.269 14.556,7.258 C14.565,7.244 14.575,7.230 14.585,7.216 C14.595,7.205 14.605,7.191 14.611,7.177 C14.621,7.166 14.631,7.152 14.641,7.141 C14.651,7.127 14.657,7.117 14.667,7.106 C14.677,7.091 14.687,7.081 14.696,7.071 C14.706,7.060 14.713,7.049 14.723,7.035 C14.732,7.024 14.742,7.013 14.752,7.003 C14.762,6.993 14.768,6.982 14.778,6.971 C14.788,6.961 14.798,6.950 14.807,6.939 C14.817,6.929 14.824,6.922 14.834,6.911 L14.860,6.879 L14.889,6.851 C14.899,6.840 14.905,6.833 14.915,6.822 C14.925,6.812 14.935,6.805 14.944,6.794 C14.954,6.787 14.961,6.777 14.971,6.769 C14.980,6.759 14.990,6.751 15.000,6.744 C15.010,6.734 15.016,6.727 15.026,6.720 C15.036,6.709 15.045,6.702 15.055,6.691 C15.066,6.684 15.072,6.677 15.081,6.670 C15.091,6.660 15.101,6.652 15.108,6.645 C15.117,6.638 15.127,6.631 15.137,6.624 C15.147,6.614 15.157,6.606 15.163,6.599 L15.193,6.578 C15.199,6.571 15.209,6.564 15.219,6.556 C15.229,6.550 15.239,6.543 15.249,6.535 C15.255,6.528 15.265,6.521 15.275,6.515 C15.285,6.511 15.294,6.504 15.304,6.496 C15.311,6.489 15.321,6.482 15.330,6.478 C15.340,6.472 15.350,6.465 15.357,6.457 C15.366,6.454 15.376,6.447 15.386,6.439 C15.395,6.437 15.402,6.429 15.412,6.422 C15.422,6.419 15.431,6.411 15.441,6.408 C15.451,6.401 15.458,6.394 15.467,6.390 C15.477,6.387 15.487,6.380 15.497,6.372 C15.503,6.369 15.513,6.362 15.523,6.359 C15.532,6.351 15.542,6.348 15.552,6.341 C15.559,6.337 15.568,6.333 15.578,6.326 L15.604,6.312 C15.614,6.309 15.624,6.302 15.634,6.298 C15.643,6.291 15.650,6.288 15.660,6.284 C15.670,6.277 15.679,6.273 15.689,6.270 C15.696,6.266 15.706,6.259 15.715,6.255 C15.725,6.252 15.735,6.249 15.745,6.242 C15.751,6.238 15.761,6.234 15.771,6.231 L15.816,6.206 L15.843,6.195 C15.852,6.192 15.862,6.188 15.873,6.185 C15.879,6.181 15.888,6.177 15.898,6.175 C15.908,6.171 15.918,6.167 15.924,6.164 L15.954,6.153 L15.980,6.142 C15.990,6.142 16.000,6.138 16.010,6.136 C16.020,6.132 16.026,6.128 16.036,6.125 C16.046,6.121 16.056,6.117 16.065,6.117 C16.075,6.114 16.082,6.110 16.091,6.107 L16.121,6.099 C16.127,6.097 16.137,6.093 16.147,6.093 C16.157,6.089 16.166,6.086 16.173,6.086 C16.183,6.082 16.193,6.078 16.202,6.078 C16.212,6.075 16.219,6.075 16.229,6.071 L16.258,6.064 L16.284,6.058 C16.294,6.058 16.303,6.054 16.313,6.054 C16.323,6.050 16.330,6.050 16.339,6.047 C16.349,6.043 16.359,6.043 16.368,6.039 L16.395,6.036 C16.404,6.036 16.414,6.032 16.424,6.032 C16.431,6.029 16.440,6.029 16.450,6.029 C16.460,6.025 16.470,6.025 16.476,6.022 L16.506,6.019 L16.532,6.015 C16.542,6.015 16.552,6.015 16.562,6.015 L16.588,6.011 L16.617,6.008 C16.627,6.008 16.634,6.008 16.644,6.004 C16.653,6.004 16.663,6.004 16.673,6.004 C16.683,6.004 16.689,6.000 16.699,6.000 C16.709,6.000 16.718,6.000 16.725,6.000 L16.754,6.000 C16.764,6.000 16.771,6.000 16.781,5.997 L21.034,5.997 L21.034,20.925 L21.021,20.925 Z" class="cls-4"/>
  </g>
</svg>
