<svg xmlns="http://www.w3.org/2000/svg" xmlns:xlink="http://www.w3.org/1999/xlink" preserveAspectRatio="xMidYMid" width="51" height="30" viewBox="0 0 51 30">
  <defs>
    <style>
      .cls-1 {
        fill: #f1f3f2;
      }

      .cls-2 {
        fill: #4361c3;
        fill-rule: evenodd;
      }
    </style>
  </defs>
  <g>
    <rect width="51" height="30" rx="1" ry="1" class="cls-1"/>
    <path d="M30.194,21.000 L30.193,21.000 L20.806,21.000 L20.806,21.000 C17.605,20.999 15.001,18.308 15.000,15.001 C15.001,11.693 17.605,9.001 20.805,9.000 L30.193,9.000 C33.395,9.001 35.999,11.693 36.000,15.000 C35.999,18.308 33.395,20.999 30.194,21.000 ZM21.000,10.500 C18.515,10.500 16.500,12.515 16.500,15.000 C16.500,17.485 18.515,19.500 21.000,19.500 C23.485,19.500 25.500,17.485 25.500,15.000 C25.500,12.515 23.485,10.500 21.000,10.500 ZM22.000,17.816 L22.000,12.184 C23.163,12.597 24.000,13.696 24.000,15.000 C24.000,16.304 23.163,17.403 22.000,17.816 ZM18.000,15.000 C18.000,13.696 18.837,12.597 20.000,12.184 L20.000,17.816 C18.837,17.403 18.000,16.304 18.000,15.000 Z" class="cls-2"/>
  </g>
</svg>
